<?xml version="1.0" standalone="no"?>
<!DOCTYPE svg PUBLIC "-//W3C//DTD SVG 20010904//EN"
 "http://www.w3.org/TR/2001/REC-SVG-20010904/DTD/svg10.dtd">
<svg version="1.0" xmlns="http://www.w3.org/2000/svg"
 width="506.000000pt" height="506.000000pt" viewBox="0 0 506.000000 506.000000"
 preserveAspectRatio="xMidYMid meet">
<metadata>
Created by potrace 1.11, written by Peter Selinger 2001-2013
</metadata>
<g transform="translate(0.000000,506.000000) scale(0.100000,-0.100000)"
fill="#000000" stroke="none">
<path d="M11 5029 c-6 -18 -11 -79 -11 -135 0 -84 3 -104 14 -104 8 0 17 -10
19 -22 l4 -23 2 23 c0 12 6 22 12 22 7 0 9 -13 5 -37 -4 -21 -9 -55 -12 -75
-8 -51 -24 -48 -24 5 0 23 -5 49 -10 57 -7 10 -10 -19 -10 -91 l0 -106 30 5
30 4 0 -57 0 -57 -30 4 c-28 4 -30 2 -30 -27 0 -29 2 -31 30 -27 27 4 30 1 30
-22 0 -27 -15 -35 -23 -13 -3 6 -5 -10 -5 -38 0 -27 2 -44 5 -37 8 21 23 13
23 -13 0 -20 -5 -25 -25 -25 -18 0 -25 -5 -25 -20 0 -13 7 -20 19 -20 24 0 36
-59 26 -120 -5 -30 -11 -40 -26 -40 -12 0 -19 -7 -19 -20 0 -13 7 -20 19 -20
24 0 36 -59 26 -120 -5 -30 -11 -40 -26 -40 -12 0 -19 -7 -19 -20 0 -13 7 -20
19 -20 15 0 21 -10 26 -40 10 -61 -2 -120 -26 -120 -12 0 -19 -7 -19 -20 0
-13 7 -20 20 -20 13 0 20 -7 20 -20 0 -11 5 -20 10 -20 6 0 10 7 10 15 0 9 9
15 24 15 31 0 37 -27 28 -132 -3 -27 -52 -24 -52 2 0 11 -4 20 -10 20 -5 0
-10 -9 -10 -20 0 -13 -7 -20 -20 -20 -13 0 -20 -7 -20 -20 0 -13 7 -20 19 -20
24 0 36 -59 26 -120 -5 -30 -11 -40 -26 -40 -12 0 -19 -7 -19 -20 0 -13 7 -20
19 -20 15 0 21 -10 26 -40 10 -61 -2 -120 -26 -120 -12 0 -19 -7 -19 -20 0
-13 7 -20 19 -20 15 0 21 -10 26 -40 10 -61 -2 -120 -26 -120 -12 0 -19 -7
-19 -20 0 -13 7 -20 19 -20 15 0 21 -10 26 -40 10 -61 -2 -120 -26 -120 -12 0
-19 -7 -19 -20 0 -13 7 -20 19 -20 15 0 21 -10 26 -40 10 -61 -2 -120 -26
-120 -12 0 -19 -7 -19 -20 0 -13 7 -20 19 -20 15 0 21 -10 26 -40 10 -61 -2
-120 -26 -120 -12 0 -19 -7 -19 -20 0 -13 7 -20 19 -20 24 0 36 -59 26 -120
-5 -30 -11 -40 -26 -40 -12 0 -19 -7 -19 -20 0 -13 7 -20 20 -20 13 0 20 -7
20 -20 0 -11 5 -20 10 -20 6 0 10 7 10 15 0 9 9 15 24 15 31 0 37 -27 28 -132
-3 -27 -52 -24 -52 2 0 11 -4 20 -10 20 -5 0 -10 -9 -10 -20 0 -13 -7 -20 -20
-20 -13 0 -20 -7 -20 -20 0 -13 7 -20 19 -20 15 0 21 -10 26 -40 10 -61 -2
-120 -26 -120 -12 0 -19 -7 -19 -20 0 -13 7 -20 19 -20 15 0 21 -10 26 -40 10
-61 -2 -120 -26 -120 -12 0 -19 -7 -19 -20 0 -13 7 -20 19 -20 15 0 21 -10 26
-40 10 -61 -2 -120 -26 -120 -12 0 -19 -7 -19 -20 0 -13 7 -20 19 -20 15 0 21
-10 26 -40 10 -61 -2 -120 -26 -120 -12 0 -19 -7 -19 -20 0 -13 7 -20 20 -20
13 0 20 -7 20 -20 0 -11 5 -20 10 -20 6 0 10 7 10 15 0 9 9 15 24 15 31 0 37
-27 28 -132 -3 -27 -52 -24 -52 2 0 11 -4 20 -10 20 -5 0 -10 -9 -10 -20 0
-13 -7 -20 -20 -20 -13 0 -20 -7 -20 -20 0 -13 7 -20 19 -20 15 0 21 -10 26
-40 10 -61 -2 -120 -26 -120 -12 0 -19 -7 -19 -20 0 -13 7 -20 20 -20 13 0 20
-7 20 -20 0 -11 5 -20 10 -20 6 0 10 9 10 20 0 28 38 26 50 -2 l9 -23 0 23 c1
32 48 32 54 0 l4 -23 8 22 c9 29 45 31 45 3 0 -11 5 -20 10 -20 6 0 10 9 10
20 0 28 38 26 50 -2 l9 -23 0 23 c1 17 7 22 26 22 19 0 25 -5 26 -22 l0 -23 9
23 c12 28 50 30 50 2 0 -11 5 -20 10 -20 6 0 10 9 10 20 0 28 36 26 45 -2 l8
-23 4 23 c6 32 53 32 54 0 l0 -23 9 23 c12 28 50 30 50 2 0 -11 5 -20 10 -20
6 0 10 9 10 20 0 28 36 26 45 -2 l8 -23 4 23 c6 29 41 29 52 0 l8 -22 5 22 c8
30 45 29 51 0 l4 -23 8 22 c9 30 41 30 50 0 l8 -22 4 23 c6 29 41 29 53 0 l9
-23 0 23 c1 32 48 32 54 -1 l4 -22 8 23 c9 28 45 30 45 2 0 -11 5 -20 10 -20
6 0 10 9 10 20 0 28 38 26 50 -2 l9 -23 0 23 c1 16 7 22 25 22 18 0 26 -7 29
-22 l4 -23 8 23 c9 28 45 30 45 2 0 -11 5 -20 10 -20 6 0 10 9 10 20 0 28 36
26 45 -2 l8 -23 4 23 c3 15 11 22 29 22 18 0 24 -6 25 -22 l0 -23 9 23 c12 28
50 30 50 2 0 -11 5 -20 10 -20 6 0 10 9 10 20 0 28 36 26 45 -3 l8 -22 4 23
c3 15 11 22 29 22 18 0 24 -6 25 -22 l0 -23 9 23 c12 29 47 29 53 0 l4 -23 8
22 c9 30 41 30 50 1 l7 -23 7 25 c7 25 8 25 116 25 107 0 110 -1 122 -25 12
-24 13 -25 13 -2 0 17 6 22 24 22 18 0 26 -7 29 -22 l4 -23 8 22 c9 29 45 31
45 3 0 -11 5 -20 10 -20 6 0 10 9 10 20 0 28 38 26 50 -2 l9 -23 0 23 c1 17 7
22 26 22 19 0 25 -5 26 -22 l0 -23 9 23 c12 28 50 30 50 2 0 -11 5 -20 10 -20
6 0 10 9 10 20 0 28 36 26 45 -2 l8 -23 4 23 c3 15 11 22 29 22 18 0 24 -6 25
-22 l0 -23 9 23 c12 28 50 30 50 2 0 -11 5 -20 10 -20 6 0 10 9 10 20 0 28 36
26 45 -2 l8 -23 4 22 c6 30 43 31 51 1 l5 -22 8 22 c11 29 46 29 52 0 l4 -23
8 23 c9 28 45 30 45 2 0 -11 5 -20 10 -20 6 0 10 9 10 20 0 28 38 26 50 -2 l9
-23 0 23 c1 16 7 22 25 22 18 0 26 -7 29 -22 l4 -23 8 23 c9 28 45 30 45 2 0
-11 5 -20 10 -20 6 0 10 9 10 20 0 28 38 26 50 -2 l9 -23 0 23 c1 17 7 22 26
22 19 0 25 -5 26 -22 l0 -23 9 23 c12 28 50 30 50 2 0 -11 5 -20 10 -20 6 0
10 9 10 20 0 28 38 26 50 -2 l9 -23 0 23 c1 17 7 22 26 22 19 0 25 -5 26 -22
l0 -23 9 23 c12 28 50 30 50 2 0 -11 5 -20 10 -20 6 0 10 9 10 20 0 28 36 26
45 -2 l8 -23 4 23 c6 31 50 31 56 0 l4 -23 2 23 c2 31 48 31 54 -1 l4 -22 8
23 c9 28 45 30 45 2 0 -11 5 -20 10 -20 6 0 10 9 10 20 0 28 38 26 50 -2 l9
-23 0 23 c1 16 7 22 25 22 18 0 26 -7 29 -22 l4 -23 8 23 c9 28 45 30 45 2 0
-11 5 -20 10 -20 6 0 10 9 10 20 0 28 38 26 50 -3 l9 -22 0 23 c1 17 7 22 26
22 19 0 25 -5 26 -22 l0 -23 9 23 c12 28 50 30 50 2 0 -11 5 -20 10 -20 6 0
10 9 10 20 0 28 36 26 45 -2 l8 -23 4 23 c3 15 11 22 29 22 18 0 24 -6 25 -22
l0 -23 9 22 c12 29 50 31 50 3 0 -11 5 -20 10 -20 6 0 10 9 10 20 0 28 36 26
45 -2 l8 -23 4 22 c6 30 41 30 52 1 l8 -22 5 22 c8 30 45 29 51 0 l4 -23 8 23
c4 12 15 22 25 22 10 0 21 -10 25 -22 l8 -23 4 22 c3 15 12 23 24 23 11 0 24
-10 29 -23 l9 -22 0 23 c1 16 7 22 25 22 18 0 26 -7 29 -22 l4 -23 8 23 c9 28
45 30 45 2 0 -11 5 -20 10 -20 6 0 10 9 10 20 0 28 38 26 50 -3 l9 -22 0 23
c1 16 7 22 25 22 18 0 26 -7 29 -22 l4 -23 8 23 c9 28 45 30 45 2 0 -11 5 -20
10 -20 6 0 10 9 10 20 0 28 38 26 50 -3 l9 -22 0 23 c1 17 7 22 26 22 19 0 25
-5 26 -22 l0 -23 9 22 c12 29 50 31 50 3 0 -11 5 -20 10 -20 6 0 10 9 10 20 0
28 36 26 45 -2 l8 -23 4 23 c3 15 11 22 28 22 17 0 25 -7 28 -22 2 -13 4 4 4
37 1 33 -1 52 -4 43 -3 -11 -14 -18 -29 -18 -25 0 -27 5 -27 80 0 75 2 80 27
80 18 0 26 -7 29 -22 2 -13 4 4 4 37 1 33 -1 52 -4 43 -3 -11 -14 -18 -29 -18
-25 0 -27 5 -27 80 0 75 2 80 27 80 18 0 26 -7 29 -22 2 -13 4 4 4 37 1 33 -1
52 -4 43 -3 -11 -14 -18 -29 -18 -25 0 -27 5 -27 80 0 75 2 80 27 80 18 0 26
-7 29 -22 2 -13 4 4 4 37 1 33 -1 52 -4 43 -3 -11 -14 -18 -29 -18 -25 0 -27
5 -27 80 0 75 2 80 27 80 18 0 26 -7 29 -22 2 -13 4 4 4 37 1 33 -1 52 -4 43
-3 -11 -14 -18 -29 -18 -25 0 -27 5 -27 80 0 75 2 80 27 80 18 0 26 -7 29 -23
2 -12 4 5 4 38 1 33 -1 52 -4 43 -3 -11 -14 -18 -28 -18 -19 0 -24 7 -30 40
-4 22 -4 58 0 80 6 33 11 40 30 40 14 0 25 -7 28 -17 3 -10 5 -1 6 20 1 35 -1
37 -28 37 -26 0 -30 4 -36 40 -4 22 -4 58 0 80 6 36 10 40 36 40 22 0 29 5 29
20 0 15 -7 20 -29 20 -26 0 -30 4 -36 40 -4 22 -4 58 0 80 6 36 10 40 36 40
22 0 29 5 29 20 0 15 -7 20 -29 20 -26 0 -30 4 -36 40 -4 22 -4 58 0 80 6 36
10 40 37 40 23 0 29 4 26 18 -2 10 -14 18 -30 20 -22 3 -27 9 -33 43 -4 21 -4
57 0 79 6 36 10 40 37 40 23 0 29 4 26 18 -2 10 -14 18 -30 20 -22 3 -27 9
-33 43 -4 21 -4 57 0 79 6 36 10 40 36 40 22 0 29 5 29 20 0 15 -7 20 -29 20
-26 0 -30 4 -36 40 -4 22 -4 58 0 80 6 36 10 40 36 40 22 0 29 5 29 20 0 15
-7 20 -29 20 -26 0 -30 4 -36 40 -4 22 -4 58 0 80 6 36 10 40 36 40 22 0 29 5
29 20 0 15 -7 20 -29 20 -26 0 -30 4 -36 40 -4 22 -4 58 0 80 6 33 11 40 30
40 17 0 25 -7 28 -22 2 -13 4 4 4 37 1 33 -1 52 -4 43 -3 -11 -14 -18 -29 -18
-25 0 -27 5 -27 80 0 75 2 80 27 80 18 0 26 -7 29 -22 2 -13 4 4 4 37 1 33 -1
52 -4 43 -3 -11 -14 -18 -29 -18 -25 0 -26 3 -27 80 -1 84 1 87 33 82 23 -3
30 0 30 12 0 11 -9 16 -29 16 -24 0 -29 5 -35 31 -3 17 -6 58 -6 90 l0 58 38
4 37 4 -37 1 -38 2 0 78 c0 43 -2 81 -5 84 -3 3 -34 -3 -68 -14 -88 -27 -191
-26 -253 4 -97 45 -174 151 -174 240 0 24 -4 28 -26 28 -26 0 -27 1 -21 45 4
25 3 45 -3 45 -5 0 -10 -19 -12 -42 -3 -39 -6 -43 -30 -46 -24 -3 -28 0 -28
22 0 14 5 26 10 26 6 0 10 -5 10 -11 0 -5 5 -7 10 -4 15 9 12 25 -5 25 -8 0
-15 7 -15 15 0 8 7 15 15 15 8 0 15 7 15 15 0 8 -4 15 -10 15 -5 0 -10 -4 -10
-10 0 -5 -4 -10 -10 -10 -5 0 -10 11 -10 25 0 24 2 25 60 22 l61 -2 25 70 c39
108 38 105 21 105 -26 0 -47 -12 -47 -26 0 -8 -4 -14 -10 -14 -5 0 -10 -11
-10 -25 0 -14 5 -25 10 -25 6 0 10 -7 10 -16 0 -9 -7 -14 -17 -12 -21 4 -35
66 -26 116 6 36 20 43 25 12 3 -20 5 -19 43 7 l40 28 -85 3 c-110 3 -113 4
-99 39 24 59 34 79 57 110 13 18 21 36 18 42 -3 5 1 11 9 15 8 3 15 10 15 16
0 7 -702 11 -2217 12 -1220 2 -1952 5 -1628 8 l590 5 -592 3 -591 2 -11 -31z
m145 -46 c28 -38 7 -133 -30 -133 -16 0 -38 26 -53 61 -24 56 48 117 83 72z
m114 -2 c26 -50 3 -121 -40 -121 -36 0 -54 78 -28 120 16 25 54 26 68 1z m116
-6 c29 -44 3 -115 -41 -115 -40 0 -59 76 -29 118 20 29 50 28 70 -3z m140 -22
c10 -48 12 -49 13 -10 1 30 5 37 21 37 17 0 20 -7 20 -40 l0 -40 -50 2 c-53 2
-57 8 -44 56 9 31 32 28 40 -5z m85 -10 c0 -15 2 -15 9 2 7 17 9 15 9 -12 1
-27 -3 -33 -19 -33 -16 0 -20 7 -20 30 0 31 19 43 21 13z m99 -13 c0 -23 -4
-30 -20 -30 -14 0 -20 7 -21 23 l-2 22 -4 -22 c-6 -33 -23 -28 -23 7 0 28 3
30 35 30 32 0 35 -2 35 -30z m-390 -215 l0 -75 -30 0 c-30 0 -30 1 -30 55 0
48 2 55 20 55 13 0 20 7 20 20 0 11 5 20 10 20 6 0 10 -32 10 -75z m40 23 c0
-29 3 -63 6 -75 5 -18 2 -23 -13 -23 -17 0 -19 7 -17 58 3 89 3 92 14 92 6 0
10 -24 10 -52z m190 0 c0 -29 3 -63 6 -75 5 -18 2 -23 -12 -23 -17 0 -19 8
-19 75 0 53 4 75 13 75 8 0 12 -17 12 -52z m300 32 c0 -11 7 -20 15 -20 12 0
15 -13 15 -55 0 -52 -1 -55 -25 -55 -24 0 -25 2 -25 75 0 43 4 75 10 75 6 0
10 -9 10 -20z m191 -12 c0 -18 3 -27 6 -20 2 6 9 12 14 12 13 0 11 -37 -2 -46
-8 -4 -8 -9 0 -17 14 -14 14 -47 1 -47 -5 0 -10 6 -10 13 0 8 -3 9 -8 1 -4 -6
-39 -11 -79 -12 l-73 0 0 54 0 54 60 -3 c57 -3 60 -1 60 20 0 38 30 29 31 -9z
m199 -20 c0 -29 3 -63 6 -75 5 -17 2 -23 -10 -23 -13 0 -16 13 -16 75 0 43 4
75 10 75 6 0 10 -24 10 -52z m380 0 c0 -29 3 -63 6 -75 5 -17 2 -23 -10 -23
-13 0 -16 13 -16 75 0 43 4 75 10 75 6 0 10 -24 10 -52z m51 20 c0 -18 3 -27
6 -20 11 28 20 9 20 -43 0 -30 -4 -55 -8 -55 -5 0 -9 6 -10 13 0 10 -2 10 -6
0 -13 -33 -23 -6 -23 62 0 43 4 75 10 75 6 0 10 -15 11 -32z m372 12 c3 -11
12 -20 21 -20 13 0 16 -11 16 -55 0 -30 -4 -55 -10 -55 -5 0 -10 18 -10 40 0
22 -4 40 -10 40 -5 0 -10 -18 -10 -40 0 -22 -4 -40 -10 -40 -6 0 -10 27 -10
60 0 33 -4 60 -10 60 -6 0 -10 -27 -10 -60 0 -33 -4 -60 -10 -60 -6 0 -10 27
-10 60 0 33 -4 60 -10 60 -5 0 -10 7 -10 15 0 11 11 15 39 15 30 0 40 -4 44
-20z m647 -32 c0 -29 3 -63 6 -75 5 -17 2 -23 -10 -23 -13 0 -16 13 -16 75 0
43 4 75 10 75 6 0 10 -24 10 -52z m700 0 c0 -29 3 -63 6 -75 5 -18 2 -23 -13
-23 -17 0 -19 7 -17 58 3 89 3 92 14 92 6 0 10 -24 10 -52z m63 25 c3 -15 3
-42 0 -60 -4 -21 -2 -33 6 -33 6 0 11 -7 11 -16 0 -9 -7 -14 -17 -12 -13 2
-20 17 -24 48 -11 74 11 140 24 73z m187 -25 c0 -29 3 -63 6 -75 5 -18 2 -23
-12 -23 -17 0 -19 8 -19 75 0 53 4 75 13 75 8 0 12 -17 12 -52z m323 25 c3
-15 3 -42 0 -60 -4 -21 -2 -33 6 -33 6 0 11 17 11 40 0 22 5 40 10 40 6 0 10
-18 10 -40 0 -22 5 -40 10 -40 6 0 10 18 10 40 l0 40 40 0 c44 0 53 -17 20
-38 -13 -8 -20 -23 -20 -42 l0 -30 -60 1 -60 1 0 39 c0 21 -4 39 -10 39 -5 0
-10 7 -10 15 0 8 5 15 10 15 6 0 10 9 10 20 0 30 17 24 23 -7z m-3813 -55 c0
-21 5 -38 10 -38 6 0 10 18 10 40 0 22 5 40 10 40 6 0 10 -24 10 -54 l0 -54
-60 0 -60 0 0 54 0 54 40 -2 c39 -1 40 -2 40 -40z m290 -14 c0 -54 0 -55 -27
-52 -25 3 -28 8 -30 43 -4 54 2 65 32 65 24 0 25 -3 25 -56z m68 3 c3 -42 0
-49 -17 -54 -12 -3 -21 -12 -21 -19 0 -8 -4 -14 -10 -14 -6 0 -10 30 -10 71
l0 70 28 -3 c25 -3 27 -7 30 -51z m122 -2 c0 -52 -1 -55 -24 -55 -33 0 -39 13
-31 66 5 38 9 44 31 44 23 0 24 -3 24 -55z m128 2 c3 -52 -15 -70 -49 -48 -12
7 -19 7 -19 1 0 -5 -11 -10 -25 -10 -24 0 -25 3 -25 55 l0 54 58 -2 57 -2 3
-48z m440 -4 c2 -32 -1 -53 -7 -53 -6 0 -11 18 -11 40 0 22 -4 40 -10 40 -5 0
-10 -17 -10 -38 0 -38 -1 -39 -40 -40 l-40 -2 0 55 0 55 58 -3 57 -2 3 -52z
m190 -11 c-3 -61 -5 -67 -25 -70 -17 -3 -23 2 -23 16 0 13 -6 19 -17 18 -14
-1 -20 9 -24 39 l-6 40 -2 -42 c-2 -63 -21 -52 -21 11 l0 54 60 0 61 0 -3 -66z
m93 51 c1 -17 2 -17 6 0 7 25 33 21 34 -5 l2 -23 4 23 c3 17 10 22 26 20 19
-3 22 -10 25 -54 l3 -52 -61 0 -60 0 0 54 c0 30 5 54 10 54 6 0 11 -8 11 -17z
m349 4 c0 -7 -9 -18 -20 -25 -13 -7 -20 -23 -20 -41 0 -27 -2 -29 -37 -28
l-38 2 -3 52 -3 51 61 1 c40 0 60 -4 60 -12z m315 -42 c0 -47 -2 -50 -27 -53
-28 -3 -28 -3 -28 53 0 56 0 56 28 53 25 -3 27 -6 27 -53z m125 0 c0 -52 -1
-55 -24 -55 -33 0 -39 13 -31 66 5 38 9 44 31 44 23 0 24 -3 24 -55z m90 15
c0 -22 5 -40 10 -40 6 0 10 18 10 40 0 42 19 57 21 18 l2 -23 4 23 c3 15 11
22 29 22 22 0 24 -3 24 -55 l0 -55 -60 2 c-52 3 -60 1 -60 -14 0 -10 -7 -18
-15 -18 -8 0 -15 7 -15 15 0 8 -7 15 -15 15 -12 0 -15 13 -15 55 l0 55 40 0
40 0 0 -40z m160 -15 c0 -52 -1 -55 -25 -55 -24 0 -25 3 -25 55 0 52 1 55 25
55 24 0 25 -3 25 -55z m130 42 c0 -7 -9 -18 -20 -25 -13 -8 -20 -23 -20 -42 0
-28 -3 -30 -34 -30 -43 0 -50 10 -42 65 l7 43 54 1 c37 0 55 -4 55 -12z m185
-42 l0 -50 -37 -2 c-38 -1 -38 -1 -38 38 0 21 -4 39 -10 39 -5 0 -10 -18 -10
-40 0 -22 -4 -40 -10 -40 -5 0 -10 25 -10 55 l0 54 58 -2 57 -2 0 -50z m195
32 l9 -22 0 23 c1 17 7 22 26 22 24 0 25 -3 25 -56 l0 -56 -32 3 c-53 3 -68 0
-68 -16 0 -8 -4 -15 -10 -15 -5 0 -10 8 -10 18 0 15 -6 18 -30 14 l-30 -4 0
55 0 56 56 0 c47 0 56 -3 64 -22z m250 -32 l0 -52 -90 0 -90 0 0 52 0 52 90 0
90 0 0 -52z m32 13 l1 -43 4 43 c6 61 23 52 23 -13 0 -52 -1 -55 -25 -55 -24
0 -25 3 -25 55 0 64 19 75 22 13z m286 -25 c-3 -66 -4 -68 -30 -71 l-28 -3 0
70 0 71 30 0 31 0 -3 -67z m122 11 c0 -54 0 -55 -27 -52 -25 3 -28 8 -31 42
-4 52 3 66 33 66 24 0 25 -3 25 -56z m33 34 l4 -23 8 21 c5 18 14 22 43 20
l37 -1 0 -50 c0 -47 -2 -50 -25 -50 -20 0 -26 6 -31 30 l-6 30 -8 -32 c-4 -18
-11 -33 -15 -33 -12 0 -30 49 -30 80 0 35 17 40 23 8z m472 -33 l0 -50 -42 -2
-43 -2 -2 42 -1 42 -4 -42 c-6 -62 -23 -53 -23 12 l0 54 58 -2 57 -2 0 -50z
m156 16 l1 -36 10 38 c14 54 28 45 28 -18 l0 -55 -62 3 c-70 2 -75 9 -63 73 6
32 8 34 45 32 39 -1 40 -2 41 -37z m-2511 -51 c0 -11 -4 -20 -10 -20 -5 0 -10
9 -10 20 0 11 5 20 10 20 6 0 10 -9 10 -20z m-1380 -145 c0 -55 -3 -75 -13
-75 -10 0 -13 16 -11 58 3 89 3 92 14 92 6 0 10 -32 10 -75z m63 48 c3 -15 3
-42 0 -60 -4 -21 -2 -33 6 -33 6 0 11 -7 11 -16 0 -9 -7 -14 -17 -12 -13 2
-20 17 -24 48 -11 74 11 140 24 73z m187 -25 c0 -29 3 -63 6 -75 5 -18 2 -23
-12 -23 -17 0 -19 8 -19 75 0 53 4 75 13 75 8 0 12 -17 12 -52z m315 -23 c0
-53 -4 -75 -12 -75 -9 0 -13 22 -13 75 0 53 4 75 13 75 8 0 12 -22 12 -75z
m181 65 c19 0 24 -5 24 -26 0 -14 -5 -34 -10 -45 -8 -15 -7 -19 5 -19 9 0 15
-9 15 -25 0 -16 -6 -25 -15 -25 -8 0 -15 6 -15 13 0 8 -3 7 -10 -3 -16 -25
-23 -2 -12 40 8 32 7 40 -3 40 -9 0 -15 -15 -17 -42 -3 -38 -6 -43 -28 -43
-18 0 -26 6 -28 23 -2 12 1 22 7 22 6 0 11 -4 11 -10 0 -5 5 -10 10 -10 6 0
10 7 10 15 0 8 -7 15 -15 15 -8 0 -15 7 -15 15 0 8 7 15 15 15 8 0 15 7 15 15
0 8 -4 15 -10 15 -5 0 -10 -4 -10 -10 0 -5 -4 -10 -10 -10 -12 0 -14 33 -3 44
5 4 21 5 37 2 16 -3 39 -6 52 -6z m74 -65 c0 -53 -4 -75 -12 -75 -9 0 -13 22
-13 75 0 53 4 75 13 75 8 0 12 -22 12 -75z m140 60 c0 -8 -4 -15 -10 -15 -5 0
-10 -20 -10 -45 0 -25 5 -45 10 -45 6 0 10 -7 10 -15 0 -18 -26 -20 -36 -4 -4
7 -7 35 -7 64 0 29 3 57 7 64 10 16 36 14 36 -4z m189 -1 c2 -2 -1 -21 -7 -44
-8 -31 -7 -40 3 -40 7 0 16 -6 19 -12 3 -7 4 15 2 50 -4 54 -2 63 12 60 20 -4
33 -62 23 -108 -6 -33 -9 -35 -54 -38 -51 -3 -54 0 -38 56 8 25 7 32 -5 32
-10 0 -14 -13 -14 -45 0 -25 -4 -45 -10 -45 -5 0 -10 7 -10 15 0 8 -9 15 -20
15 -11 0 -20 7 -20 15 0 8 -4 15 -10 15 -5 0 -10 -7 -10 -15 0 -8 -4 -15 -10
-15 -5 0 -10 7 -10 15 0 8 -4 15 -10 15 -5 0 -10 7 -10 15 0 8 5 15 10 15 6 0
10 7 10 15 0 8 5 15 10 15 6 0 10 -7 10 -15 0 -25 24 -17 42 15 15 26 20 28
55 23 21 -3 40 -7 42 -9z m251 -9 c0 -26 -15 -34 -23 -12 -3 6 -5 -10 -5 -38
0 -27 2 -44 5 -37 8 21 23 13 23 -13 0 -20 -5 -25 -24 -25 -29 0 -36 16 -36
84 0 59 4 66 37 66 18 0 23 -5 23 -25z m470 5 c0 -21 12 -25 68 -21 l32 3 0
-56 0 -56 -40 2 c-39 1 -40 2 -40 40 0 21 -4 38 -10 38 -5 0 -10 -17 -10 -38
0 -38 -1 -39 -40 -40 l-40 -2 0 56 0 56 30 -4 c26 -4 30 -1 30 19 0 13 5 23
10 23 6 0 10 -9 10 -20z m213 -7 c3 -15 3 -42 0 -60 -4 -20 -1 -33 5 -33 6 0
12 17 14 38 3 32 6 37 28 37 23 0 25 -3 25 -50 l0 -50 -46 -2 -47 -2 -4 50
c-8 81 12 139 25 72z m380 0 c3 -15 3 -43 -1 -61 -4 -26 -2 -34 8 -30 8 2 14
19 14 39 1 29 4 34 26 34 23 0 25 -3 25 -50 l0 -50 -47 -2 -48 -2 0 39 c0 22
-4 40 -10 40 -5 0 -10 7 -10 15 0 8 5 15 10 15 6 0 10 9 10 20 0 30 17 24 23
-7z m747 -25 c0 -29 3 -63 6 -75 5 -17 2 -23 -10 -23 -13 0 -16 13 -16 75 0
43 4 75 10 75 6 0 10 -24 10 -52z m73 25 c3 -15 3 -42 0 -60 -4 -21 -2 -33 6
-33 6 0 11 -7 11 -15 0 -8 -9 -15 -20 -15 -17 0 -20 7 -20 40 0 22 -4 40 -10
40 -5 0 -10 7 -10 15 0 8 5 15 10 15 6 0 10 9 10 20 0 30 17 24 23 -7z m187
-48 c0 -53 -4 -75 -12 -75 -9 0 -13 22 -13 75 0 53 4 75 13 75 8 0 12 -22 12
-75z m315 0 c0 -65 -2 -75 -17 -75 -16 0 -18 10 -18 75 0 65 2 75 18 75 15 0
17 -10 17 -75z m-3155 30 c0 -8 5 -15 10 -15 6 0 10 -7 10 -15 0 -8 -4 -15
-10 -15 -5 0 -10 -7 -10 -15 0 -8 -4 -15 -10 -15 -5 0 -10 7 -10 15 0 8 -4 15
-10 15 -5 0 -10 7 -10 15 0 8 5 15 10 15 6 0 10 7 10 15 0 8 5 15 10 15 6 0
10 -7 10 -15z m3220 0 c0 -8 5 -15 10 -15 6 0 10 -7 10 -15 0 -8 -4 -15 -10
-15 -5 0 -10 -7 -10 -15 0 -8 -7 -15 -15 -15 -8 0 -15 7 -15 15 0 8 -4 15 -10
15 -5 0 -10 7 -10 15 0 8 5 15 10 15 6 0 10 7 10 15 0 8 7 15 15 15 8 0 15 -7
15 -15z m-4210 -17 c9 -22 9 -23 9 -2 1 19 7 21 56 22 49 0 55 -2 55 -20 0
-14 -5 -18 -15 -14 -11 4 -15 -1 -15 -19 0 -18 4 -23 15 -19 10 4 15 0 15 -15
0 -19 -5 -21 -62 -20 -90 2 -98 1 -98 -16 0 -8 -4 -15 -10 -15 -6 0 -10 30
-10 70 0 68 1 70 25 70 17 0 29 -7 35 -22z m270 -20 c0 -21 5 -38 10 -38 6 0
10 18 10 40 0 22 5 40 10 40 6 0 10 -24 10 -54 l0 -53 -90 0 -90 0 0 52 0 53
70 -1 70 0 0 -39z m290 -28 c0 -68 -1 -70 -25 -70 -24 0 -25 2 -25 70 0 68 1
70 25 70 24 0 25 -2 25 -70z m125 15 c0 -47 -2 -50 -25 -50 -22 0 -25 5 -28
39 -4 52 3 68 30 64 20 -3 23 -9 23 -53z m36 28 l2 -28 4 28 c5 33 23 36 23 3
0 -43 -12 -86 -25 -86 -13 0 -25 43 -25 86 0 34 20 30 21 -3z m94 -28 c0 -47
-2 -50 -27 -53 -28 -3 -28 -3 -28 53 0 56 0 56 28 53 25 -3 27 -6 27 -53z
m1135 -1 l0 -53 -57 2 -58 2 -3 38 c-5 60 -42 44 -42 -19 0 -13 -4 -24 -10
-24 -5 0 -10 24 -10 54 l0 54 90 0 90 -1 0 -53z m90 14 c0 -21 5 -38 10 -38 6
0 10 18 10 40 0 22 5 40 10 40 7 0 10 -25 8 -67 -3 -62 -5 -68 -25 -71 -18 -3
-23 2 -23 18 0 16 -4 20 -16 16 -9 -3 -20 -6 -25 -6 -5 0 -9 -7 -9 -15 0 -8
-4 -15 -10 -15 -6 0 -10 30 -10 70 l0 70 40 -2 c39 -1 40 -2 40 -40z m350 -13
c0 -52 -1 -55 -25 -55 -24 0 -25 3 -25 55 0 52 1 55 25 55 24 0 25 -3 25 -55z
m190 41 c0 -8 -7 -16 -15 -20 -9 -3 -15 -19 -15 -41 0 -19 -4 -35 -10 -35 -5
0 -10 25 -10 55 0 52 1 55 25 55 15 0 25 -6 25 -14z m190 -43 l0 -55 -29 4
c-22 3 -31 0 -34 -14 -9 -31 -44 -22 -51 13 -8 40 -8 94 0 102 3 3 30 6 60 6
l54 0 0 -56z m258 0 l3 -53 -30 0 c-31 0 -31 0 -31 56 0 54 0 55 28 52 25 -3
27 -7 30 -55z m122 1 c0 -54 0 -55 -27 -52 -25 3 -28 8 -30 43 -4 54 2 65 32
65 24 0 25 -3 25 -56z m60 1 c0 -42 -3 -55 -15 -55 -8 0 -15 -7 -15 -15 0 -8
-4 -15 -10 -15 -6 0 -10 30 -10 70 0 68 1 70 25 70 24 0 25 -3 25 -55z m128
32 c3 -15 0 -18 -17 -12 -18 5 -21 2 -21 -20 0 -22 3 -25 21 -20 17 6 20 3 17
-12 -3 -14 -14 -18 -55 -20 -29 -2 -55 2 -59 8 -3 6 -3 30 0 54 l7 44 52 -2
c42 -2 52 -6 55 -20z m62 -32 c0 -52 -1 -55 -25 -55 -24 0 -25 3 -25 55 0 52
1 55 25 55 24 0 25 -3 25 -55z m90 13 c0 -21 5 -38 10 -38 6 0 10 18 10 40 0
22 5 40 10 40 6 0 10 -24 10 -54 l0 -54 -60 0 -60 0 0 54 0 54 40 -2 c39 -1
40 -2 40 -40z m290 -28 c0 -67 -1 -70 -24 -70 -25 0 -36 28 -36 95 0 38 6 45
37 45 22 0 23 -3 23 -70z m150 53 c0 -7 5 -13 10 -13 6 0 10 7 10 15 0 8 5 15
10 15 14 0 13 -53 -2 -85 -15 -33 -24 -32 -33 8 l-8 32 -6 -30 c-5 -24 -11
-30 -31 -30 -22 0 -25 5 -28 39 -2 21 -1 44 2 52 7 18 76 16 76 -3z m105 -38
c0 -47 -2 -50 -27 -53 -28 -3 -28 -3 -28 53 0 56 0 56 28 53 25 -3 27 -6 27
-53z m-2415 -35 c0 -11 -4 -20 -10 -20 -5 0 -10 9 -10 20 0 11 5 20 10 20 6 0
10 -9 10 -20z m-1450 -145 c0 -53 -4 -75 -12 -75 -9 0 -13 22 -13 75 0 53 4
75 13 75 8 0 12 -22 12 -75z m60 23 c0 -29 3 -63 6 -75 5 -18 2 -23 -13 -23
-17 0 -19 7 -17 58 3 89 3 92 14 92 6 0 10 -24 10 -52z m230 32 c0 -13 7 -20
20 -20 18 0 20 -7 20 -55 0 -54 0 -55 -30 -55 l-30 0 0 75 c0 43 4 75 10 75 6
0 10 -9 10 -20z m90 -55 c0 -57 -3 -75 -14 -75 -13 0 -14 17 -7 133 1 9 6 17
11 17 6 0 10 -32 10 -75z m63 48 c3 -15 3 -42 0 -60 -4 -20 -1 -33 5 -33 6 0
12 17 14 38 3 32 6 37 28 37 23 0 25 -3 25 -50 l0 -50 -46 -2 -47 -2 -4 50
c-8 81 12 139 25 72z m307 7 c0 -11 5 -20 10 -20 6 0 10 -7 10 -15 0 -8 -4
-15 -10 -15 -5 0 -10 -11 -10 -25 0 -14 5 -25 10 -25 6 0 10 -7 10 -16 0 -9
-7 -14 -17 -12 -20 4 -34 73 -26 121 6 31 23 37 23 7z m210 -55 l0 -75 -40 2
c-39 1 -40 2 -40 40 0 21 -4 38 -10 38 -5 0 -10 -18 -10 -40 l0 -40 -40 0 -40
0 0 55 0 55 63 -1 c92 -2 97 -1 97 21 0 11 5 20 10 20 6 0 10 -32 10 -75z
m660 55 c0 -22 6 -23 98 -21 66 2 82 -12 42 -37 -12 -7 -20 -23 -20 -40 0 -28
0 -29 -70 -29 l-70 -1 0 74 c0 43 4 74 10 74 6 0 10 -9 10 -20z m273 -7 c3
-15 3 -42 0 -60 -3 -20 -1 -33 5 -33 6 0 13 18 17 40 6 34 11 40 31 40 22 0
24 -4 24 -55 l0 -55 -47 2 -48 3 -6 45 c-11 74 11 140 24 73z m107 8 c0 -10 9
-21 21 -24 17 -5 20 -12 17 -54 -3 -44 -5 -48 -30 -51 l-28 -3 0 75 c0 44 4
76 10 76 6 0 10 -8 10 -19z m80 -33 c0 -29 3 -63 6 -75 5 -18 2 -23 -12 -23
-17 0 -19 8 -19 75 0 53 4 75 13 75 8 0 12 -17 12 -52z m131 35 c7 -108 5
-134 -10 -131 -18 4 -32 76 -24 121 6 30 32 37 34 10z m-2381 -38 c0 -8 -6
-15 -14 -15 -16 0 -26 -21 -26 -56 0 -13 -4 -24 -10 -24 -5 0 -10 25 -10 55 0
54 0 55 30 55 20 0 30 -5 30 -15z m91 -4 c1 -14 2 -13 6 2 9 36 23 15 23 -37
l0 -55 -55 0 c-30 0 -57 5 -61 10 -3 6 -3 30 0 54 7 43 7 44 47 43 29 0 39 -5
40 -17z m219 -36 c0 -30 -4 -55 -10 -55 -5 0 -10 18 -10 40 0 22 -4 40 -10 40
-5 0 -10 -18 -10 -40 0 -22 -4 -40 -10 -40 -5 0 -10 25 -10 55 0 54 0 55 30
55 30 0 30 -1 30 -55z m68 -12 c-3 -66 -4 -68 -30 -71 l-28 -3 0 70 0 71 30 0
31 0 -3 -67z m372 53 c0 -8 -7 -16 -15 -20 -9 -3 -15 -19 -15 -41 0 -19 -4
-35 -10 -35 -5 0 -10 25 -10 55 0 52 1 55 25 55 15 0 25 -6 25 -14z m125 -41
c0 -47 -2 -50 -25 -50 -22 0 -25 5 -27 40 -4 54 3 67 29 63 20 -3 23 -9 23
-53z m320 0 c0 -47 -2 -50 -27 -53 -28 -3 -28 -3 -28 53 0 56 0 56 28 53 25
-3 27 -6 27 -53z m125 -1 c0 -54 0 -55 -27 -52 -25 3 -28 8 -31 42 -4 52 3 66
33 66 24 0 25 -3 25 -56z m65 2 c0 -64 -24 -77 -27 -14 l-1 43 -4 -42 c-6 -62
-23 -53 -23 13 0 54 0 55 28 52 25 -3 27 -6 27 -52z m123 -3 c3 -51 2 -53 -22
-53 -33 0 -39 13 -31 66 5 39 9 45 28 42 19 -3 22 -10 25 -55z m62 2 c0 -64
-19 -75 -22 -12 l-1 42 -4 -42 c-6 -62 -23 -53 -23 12 0 52 1 55 25 55 24 0
25 -3 25 -55z m190 0 l0 -54 -55 0 c-30 0 -57 5 -61 10 -3 6 -3 30 0 54 l7 43
54 1 55 0 0 -54z m570 -1 c0 -54 0 -55 -27 -52 -25 3 -28 8 -31 42 -4 52 3 66
33 66 24 0 25 -3 25 -56z m110 -34 c0 -11 -4 -20 -10 -20 -5 0 -10 9 -10 20 0
11 5 20 10 20 6 0 10 -9 10 -20z m-984 -92 c-3 -24 -6 -47 -6 -53 0 -5 3 -29
6 -52 5 -38 4 -43 -13 -43 -10 0 -25 6 -32 13 -11 10 -14 10 -18 0 -3 -7 -20
-13 -39 -13 l-34 0 0 75 0 75 38 0 c26 0 41 6 50 20 7 11 22 20 33 20 19 0 21
-4 15 -42z m-956 -53 c0 -72 -1 -75 -24 -75 -31 0 -37 27 -28 133 1 11 10 17
27 17 24 0 25 -2 25 -75z m122 58 c5 -62 5 -81 1 -105 -4 -18 -12 -28 -23 -28
-11 0 -19 10 -23 28 -4 24 -4 43 1 105 1 10 10 17 22 17 12 0 21 -7 22 -17z
m99 -5 l2 -23 4 23 c10 49 23 18 23 -53 0 -43 -4 -75 -10 -75 -5 0 -11 10 -11
23 l-2 22 -4 -22 c-10 -50 -23 -19 -23 52 0 43 4 75 10 75 6 0 11 -10 11 -22z
m279 2 c0 -11 5 -20 10 -20 6 0 10 9 10 20 0 26 39 28 42 3 8 -100 3 -133 -23
-133 -12 0 -19 7 -19 20 0 11 -4 20 -10 20 -5 0 -10 -8 -10 -19 0 -13 -7 -18
-25 -18 -24 0 -25 1 -25 73 0 72 1 74 25 74 18 0 25 -5 25 -20z m981 -2 l2
-23 4 23 c5 26 22 30 25 5 5 -62 5 -81 1 -105 -7 -34 -22 -37 -24 -5 l-2 22
-4 -22 c-10 -50 -23 -19 -23 52 0 43 4 75 10 75 6 0 11 -10 11 -22z m130 5 c1
-17 2 -17 6 0 11 41 23 11 23 -58 0 -43 -4 -75 -10 -75 -5 0 -11 10 -11 23
l-2 22 -4 -22 c-10 -53 -33 -2 -28 62 1 17 3 38 3 48 1 9 7 17 12 17 6 0 11
-8 11 -17z m-551 -113 c0 -20 -5 -30 -15 -30 -10 0 -15 10 -15 30 0 20 5 30
15 30 10 0 15 -10 15 -30z m60 0 c0 -20 -5 -30 -15 -30 -10 0 -15 10 -15 30 0
20 5 30 15 30 10 0 15 -10 15 -30z m-510 0 c0 -11 -4 -20 -10 -20 -5 0 -10 9
-10 20 0 11 5 20 10 20 6 0 10 -9 10 -20z m70 0 c0 -11 -4 -20 -10 -20 -5 0
-10 9 -10 20 0 11 5 20 10 20 6 0 10 -9 10 -20z m60 0 c0 -11 -4 -20 -10 -20
-5 0 -10 9 -10 20 0 11 5 20 10 20 6 0 10 -9 10 -20z m60 0 c0 -11 -4 -20 -10
-20 -5 0 -10 9 -10 20 0 11 5 20 10 20 6 0 10 -9 10 -20z m190 0 c0 -11 -4
-20 -10 -20 -5 0 -10 9 -10 20 0 11 5 20 10 20 6 0 10 -9 10 -20z m-440 -75
c0 -29 -16 -41 -24 -19 -8 21 3 56 15 49 5 -4 9 -17 9 -30z m140 -5 c0 -36 -2
-40 -25 -40 -22 0 -25 4 -25 40 0 36 3 40 25 40 23 0 25 -4 25 -40z m930 5 c0
-19 -4 -35 -10 -35 -5 0 -10 16 -10 35 0 19 5 35 10 35 6 0 10 -16 10 -35z
m-620 -70 c0 -88 -1 -95 -20 -95 -19 0 -20 7 -20 95 0 88 1 95 20 95 19 0 20
-7 20 -95z m-1349 58 c1 -17 2 -17 6 0 2 9 9 17 14 17 5 0 10 -8 11 -17 5 -62
5 -81 1 -105 -7 -34 -22 -37 -24 -5 l-2 22 -4 -22 c-10 -50 -23 -19 -23 52 0
43 4 75 10 75 6 0 11 -8 11 -17z m130 -5 l2 -23 4 23 c10 49 23 18 23 -53 0
-43 -4 -75 -10 -75 -5 0 -11 10 -11 23 l-2 22 -4 -22 c-10 -53 -33 -2 -28 62
1 17 3 38 3 48 3 25 22 21 23 -5z m60 0 l2 -23 4 23 c5 26 22 30 25 5 5 -62 5
-81 1 -105 -7 -34 -22 -37 -24 -5 l-2 22 -4 -22 c-10 -50 -23 -19 -23 52 0 43
4 75 10 75 6 0 11 -10 11 -22z m1200 0 l2 -23 4 23 c10 49 23 18 23 -53 0 -43
-4 -75 -10 -75 -5 0 -11 10 -11 23 l-2 22 -4 -22 c-10 -50 -23 -19 -23 52 0
43 4 75 10 75 6 0 11 -10 11 -22z m2701 -60 c-15 -15 -26 -4 -18 18 5 13 9 15
18 6 9 -9 9 -15 0 -24z m-3752 -48 c0 -20 -5 -30 -15 -30 -10 0 -15 10 -15 30
0 20 5 30 15 30 10 0 15 -10 15 -30z m60 0 c0 -20 -5 -30 -15 -30 -10 0 -15
10 -15 30 0 20 5 30 15 30 10 0 15 -10 15 -30z m60 0 c0 -20 -5 -30 -15 -30
-10 0 -15 10 -15 30 0 20 5 30 15 30 10 0 15 -10 15 -30z m70 0 c0 -20 -5 -30
-15 -30 -10 0 -15 10 -15 30 0 20 5 30 15 30 10 0 15 -10 15 -30z m60 0 c0
-20 -5 -30 -15 -30 -10 0 -15 10 -15 30 0 20 5 30 15 30 10 0 15 -10 15 -30z
m60 0 c0 -20 -5 -30 -15 -30 -10 0 -15 10 -15 30 0 20 5 30 15 30 10 0 15 -10
15 -30z m70 0 c0 -20 -5 -30 -15 -30 -10 0 -15 10 -15 30 0 20 5 30 15 30 10
0 15 -10 15 -30z m60 0 c0 -20 -5 -30 -15 -30 -10 0 -15 10 -15 30 0 20 5 30
15 30 10 0 15 -10 15 -30z m60 0 c0 -20 -5 -30 -15 -30 -10 0 -15 10 -15 30 0
20 5 30 15 30 10 0 15 -10 15 -30z m630 0 c0 -20 -5 -30 -15 -30 -10 0 -15 10
-15 30 0 20 5 30 15 30 10 0 15 -10 15 -30z m70 0 c0 -20 -5 -30 -15 -30 -10
0 -15 10 -15 30 0 20 5 30 15 30 10 0 15 -10 15 -30z m60 0 c0 -20 -5 -30 -15
-30 -10 0 -15 10 -15 30 0 20 5 30 15 30 10 0 15 -10 15 -30z m60 0 c0 -20 -5
-30 -15 -30 -10 0 -15 10 -15 30 0 20 5 30 15 30 10 0 15 -10 15 -30z m70 0
c0 -23 -4 -30 -20 -30 -16 0 -20 7 -20 30 0 23 4 30 20 30 16 0 20 -7 20 -30z
m60 0 c0 -20 -5 -30 -15 -30 -10 0 -15 10 -15 30 0 20 5 30 15 30 10 0 15 -10
15 -30z m60 0 c0 -20 -5 -30 -15 -30 -10 0 -15 10 -15 30 0 20 5 30 15 30 10
0 15 -10 15 -30z m70 0 c0 -23 -4 -30 -20 -30 -16 0 -20 7 -20 30 0 23 4 30
20 30 16 0 20 -7 20 -30z m120 0 c0 -20 -5 -30 -15 -30 -10 0 -15 10 -15 30 0
20 5 30 15 30 10 0 15 -10 15 -30z m-1080 0 c0 -11 -4 -20 -10 -20 -5 0 -10 9
-10 20 0 11 5 20 10 20 6 0 10 -9 10 -20z m130 0 c0 -11 -4 -20 -10 -20 -5 0
-10 9 -10 20 0 11 5 20 10 20 6 0 10 -9 10 -20z m60 0 c0 -11 -4 -20 -10 -20
-5 0 -10 9 -10 20 0 11 5 20 10 20 6 0 10 -9 10 -20z m70 0 c0 -11 -4 -20 -10
-20 -5 0 -10 9 -10 20 0 11 5 20 10 20 6 0 10 -9 10 -20z m60 0 c0 -11 -4 -20
-10 -20 -5 0 -10 9 -10 20 0 11 5 20 10 20 6 0 10 -9 10 -20z m-1279 -87 c1
-17 2 -17 6 0 2 9 9 17 14 17 5 0 10 -8 11 -17 5 -62 5 -81 1 -105 -7 -34 -22
-37 -24 -5 l-2 22 -4 -22 c-10 -50 -23 -19 -23 52 0 43 4 75 10 75 6 0 11 -8
11 -17z m531 0 c5 -62 5 -81 1 -105 -4 -18 -12 -28 -23 -28 -11 0 -19 10 -23
28 -4 24 -4 43 1 105 1 10 10 17 22 17 12 0 21 -7 22 -17z m229 -5 l2 -23 4
23 c10 49 23 18 23 -53 0 -43 -4 -75 -10 -75 -5 0 -11 10 -11 23 l-2 22 -4
-22 c-10 -53 -33 -2 -28 62 1 17 3 38 3 48 3 25 22 21 23 -5z m149 2 c0 -11 5
-20 10 -20 6 0 10 9 10 20 0 28 20 25 21 -2 l2 -23 4 23 c10 49 23 18 23 -53
0 -43 -4 -75 -10 -75 -5 0 -11 10 -11 23 l-2 22 -4 -22 c-5 -28 -23 -30 -23
-3 0 11 -4 20 -10 20 -5 0 -10 -9 -10 -20 0 -13 -7 -20 -19 -20 -26 0 -31 33
-23 133 3 25 42 23 42 -3z m101 -2 l2 -23 4 23 c5 27 23 29 23 2 0 -11 5 -20
10 -20 6 0 10 9 10 20 0 13 7 20 20 20 11 0 20 -4 20 -10 0 -5 18 -10 40 -10
22 0 40 5 40 10 0 21 20 9 21 -12 l2 -23 4 23 c5 27 23 29 23 2 0 -11 5 -20
10 -20 6 0 10 9 10 20 0 13 7 20 20 20 13 0 20 -7 20 -20 0 -11 5 -20 10 -20
6 0 10 9 10 20 0 26 39 28 42 3 8 -100 3 -133 -23 -133 -12 0 -19 7 -19 20 0
11 -4 20 -10 20 -5 0 -10 -9 -10 -20 0 -13 -7 -20 -20 -20 -13 0 -20 7 -20 20
0 11 -4 20 -10 20 -5 0 -10 -9 -10 -20 0 -28 -20 -25 -21 3 -2 22 -2 22 -6 0
-5 -26 -40 -36 -99 -27 -34 5 -44 11 -44 25 0 11 -4 19 -10 19 -5 0 -10 -9
-10 -20 0 -28 -20 -25 -21 3 l-2 22 -4 -22 c-10 -50 -23 -19 -23 52 0 43 4 75
10 75 6 0 11 -10 11 -22z m380 0 l2 -23 4 23 c10 49 23 18 23 -53 0 -43 -4
-75 -10 -75 -5 0 -11 10 -11 23 l-2 22 -4 -22 c-10 -50 -23 -19 -23 52 0 43 4
75 10 75 6 0 11 -10 11 -22z m91 5 c5 -62 5 -81 1 -105 -4 -19 -12 -28 -24
-28 -13 0 -19 11 -24 44 -10 61 2 106 26 106 11 0 20 -7 21 -17z m250 0 c5
-62 5 -81 1 -105 -4 -18 -12 -28 -23 -28 -11 0 -19 10 -23 28 -4 24 -4 43 1
105 1 10 10 17 22 17 12 0 21 -7 22 -17z m99 -5 l2 -23 4 23 c5 26 22 30 25 5
5 -62 5 -81 1 -105 -7 -34 -22 -37 -24 -5 l-2 22 -4 -22 c-10 -50 -23 -19 -23
52 0 43 4 75 10 75 6 0 11 -10 11 -22z m159 -53 c0 -72 -1 -75 -24 -75 -31 0
-37 27 -28 133 1 11 10 17 27 17 24 0 25 -2 25 -75z m31 53 l2 -23 4 23 c5 27
23 29 23 2 0 -11 5 -20 10 -20 6 0 10 9 10 20 0 26 39 28 42 3 8 -100 3 -133
-23 -133 -12 0 -19 7 -19 20 0 11 -4 20 -10 20 -5 0 -10 -9 -10 -20 0 -28 -20
-25 -21 3 l-2 22 -4 -22 c-10 -50 -23 -19 -23 52 0 43 4 75 10 75 6 0 11 -10
11 -22z m1016 -62 c37 -4 93 -10 123 -12 93 -8 296 -69 331 -100 8 -8 22 -14
29 -14 7 0 22 -7 32 -17 20 -18 32 -25 99 -62 24 -13 50 -32 57 -42 7 -11 20
-19 28 -19 18 0 144 -118 144 -135 0 -6 23 -36 50 -65 28 -30 63 -79 77 -110
36 -74 82 -140 96 -140 7 0 18 -4 26 -9 11 -7 10 -13 -4 -34 -18 -28 -13 -85
11 -123 20 -29 39 -211 37 -338 -3 -123 -14 -198 -48 -306 -13 -41 -26 -87
-27 -102 -2 -15 -11 -35 -19 -45 -9 -10 -32 -48 -52 -84 -20 -36 -55 -90 -77
-120 -23 -30 -43 -66 -46 -80 -4 -15 -17 -30 -32 -37 -15 -6 -61 -41 -102 -77
-242 -213 -568 -318 -885 -286 -60 6 -138 11 -174 11 -76 0 -297 40 -388 71
-160 53 -285 213 -357 454 -6 22 -16 49 -22 60 -28 51 -124 395 -124 443 0 11
-12 29 -27 40 l-28 20 21 24 c21 22 32 75 38 183 6 100 20 170 47 237 17 40
36 79 43 88 8 8 16 32 20 52 4 21 18 51 31 67 14 16 25 35 25 42 0 31 199 269
224 269 8 0 31 17 52 38 48 47 110 90 189 129 76 39 199 83 229 83 13 0 36 6
52 14 16 8 53 17 82 21 54 7 92 38 92 74 0 10 11 2 29 -20 27 -33 36 -37 98
-43z m-2827 -41 c0 -24 -5 -35 -15 -35 -10 0 -15 11 -15 35 0 24 5 35 15 35
10 0 15 -11 15 -35z m-120 -5 c0 -23 -4 -30 -20 -30 -16 0 -20 7 -20 30 0 23
4 30 20 30 16 0 20 -7 20 -30z m60 0 c0 -20 -5 -30 -15 -30 -10 0 -15 10 -15
30 0 20 5 30 15 30 10 0 15 -10 15 -30z m190 0 c0 -20 -5 -30 -15 -30 -10 0
-15 10 -15 30 0 20 5 30 15 30 10 0 15 -10 15 -30z m3533 -10 c51 -40 39 -114
-23 -140 -85 -35 -146 82 -73 140 32 25 63 25 96 0z m-3518 -63 c3 -12 5 -52
3 -87 l-3 -65 -35 0 -35 0 -3 74 c-4 92 0 101 37 101 24 0 32 -5 36 -23z
m1189 17 c13 -5 16 -22 16 -84 0 -86 -12 -107 -55 -96 -24 6 -25 9 -25 90 0
45 3 86 7 89 8 9 36 9 57 1z m-1413 -36 l2 -23 4 23 c10 49 23 18 23 -53 0
-43 -4 -75 -10 -75 -5 0 -11 10 -11 23 l-2 22 -4 -22 c-10 -53 -33 -2 -28 62
1 17 3 38 3 48 3 25 22 21 23 -5z m60 0 l2 -23 4 23 c5 26 22 30 25 5 5 -62 5
-81 1 -105 -7 -34 -22 -37 -24 -5 l-2 22 -4 -22 c-10 -50 -23 -19 -23 52 0 43
4 75 10 75 6 0 11 -10 11 -22z m281 5 c5 -62 5 -81 1 -105 -4 -18 -12 -28 -23
-28 -11 0 -19 10 -23 28 -4 24 -4 43 1 105 1 10 10 17 22 17 12 0 21 -7 22
-17z m188 -3 c0 -11 5 -20 10 -20 6 0 10 9 10 20 0 26 39 28 42 3 8 -100 3
-133 -23 -133 -12 0 -19 7 -19 20 0 11 -4 20 -10 20 -5 0 -10 -9 -10 -21 0
-15 -5 -20 -22 -17 -21 3 -23 9 -26 76 -3 71 -3 72 23 72 18 0 25 -5 25 -20z
m192 3 c9 -106 4 -130 -28 -130 -23 0 -24 2 -24 73 0 72 1 74 25 74 17 0 26
-6 27 -17z m196 -45 c3 -32 7 -38 27 -38 20 0 24 6 27 38 3 35 5 37 41 40 l37
3 0 -77 0 -77 -57 8 c-32 4 -77 6 -100 6 l-43 -2 0 71 0 71 33 -3 c29 -3 32
-6 35 -40z m-268 -68 c0 -20 -5 -30 -15 -30 -10 0 -15 10 -15 30 0 20 5 30 15
30 10 0 15 -10 15 -30z m130 0 c0 -23 -4 -30 -20 -30 -16 0 -20 7 -20 30 0 23
4 30 20 30 16 0 20 -7 20 -30z m60 0 c0 -20 -5 -30 -15 -30 -10 0 -15 10 -15
30 0 20 5 30 15 30 10 0 15 -10 15 -30z m250 0 c0 -20 -5 -30 -15 -30 -10 0
-15 10 -15 30 0 20 5 30 15 30 10 0 15 -10 15 -30z m60 0 c0 -20 -5 -30 -15
-30 -10 0 -15 10 -15 30 0 20 5 30 15 30 10 0 15 -10 15 -30z m70 0 c0 -20 -5
-30 -15 -30 -10 0 -15 10 -15 30 0 20 5 30 15 30 10 0 15 -10 15 -30z m60 0
c0 -20 -5 -30 -15 -30 -10 0 -15 10 -15 30 0 20 5 30 15 30 10 0 15 -10 15
-30z m-520 -80 c0 -17 5 -18 50 -13 l50 6 0 -77 0 -77 -87 6 c-122 9 -133 12
-134 38 l-2 22 -4 -22 c-5 -27 -22 -31 -25 -5 -5 61 -5 80 -1 105 7 33 22 36
24 5 l2 -23 4 23 c4 22 23 32 23 12 0 -5 16 -10 35 -10 24 0 35 5 35 15 0 8 7
15 15 15 8 0 15 -9 15 -20z m-759 -12 l2 -23 4 23 c10 49 23 18 23 -53 0 -43
-4 -75 -10 -75 -5 0 -11 10 -11 23 l-2 22 -4 -22 c-10 -53 -33 -2 -28 62 1 17
3 38 3 48 3 25 22 21 23 -5z m60 0 l2 -23 4 23 c5 26 22 30 25 5 5 -62 5 -81
1 -105 -7 -34 -22 -37 -24 -5 l-2 22 -4 -22 c-10 -50 -23 -19 -23 52 0 43 4
75 10 75 6 0 11 -10 11 -22z m159 -53 c0 -72 -1 -75 -24 -75 -31 0 -37 27 -28
133 1 11 10 17 27 17 24 0 25 -2 25 -75z m1005 44 c4 -17 4 -51 0 -75 -5 -33
-11 -44 -24 -44 -12 0 -20 9 -24 28 -4 24 -4 43 1 105 3 31 40 20 47 -14z
m317 14 c9 -106 3 -133 -28 -133 -23 0 -24 3 -24 75 0 73 1 75 25 75 17 0 26
-6 27 -17z m-642 -113 c0 -20 -5 -30 -15 -30 -10 0 -15 10 -15 30 0 20 5 30
15 30 10 0 15 -10 15 -30z m70 0 c0 -23 -4 -30 -20 -30 -16 0 -20 7 -20 30 0
23 4 30 20 30 16 0 20 -7 20 -30z m60 0 c0 -20 -5 -30 -15 -30 -10 0 -15 10
-15 30 0 20 5 30 15 30 10 0 15 -10 15 -30z m60 0 c0 -20 -5 -30 -15 -30 -10
0 -15 10 -15 30 0 20 5 30 15 30 10 0 15 -10 15 -30z m190 0 c0 -20 -5 -30
-15 -30 -10 0 -15 10 -15 30 0 20 5 30 15 30 10 0 15 -10 15 -30z m60 0 c0
-20 -5 -30 -15 -30 -10 0 -15 10 -15 30 0 20 5 30 15 30 10 0 15 -10 15 -30z
m-70 -70 c0 -21 24 -28 35 -10 12 19 45 11 45 -10 0 -11 5 -20 10 -20 6 0 10
9 10 20 0 13 7 20 20 20 13 0 20 -7 20 -20 0 -11 5 -20 10 -20 6 0 10 9 10 20
0 28 20 25 21 -2 l2 -23 4 23 c10 49 23 18 23 -53 0 -43 -4 -75 -10 -75 -5 0
-11 10 -11 23 l-2 22 -4 -22 c-5 -28 -23 -30 -23 -3 0 11 -4 20 -10 20 -5 0
-10 -9 -10 -20 0 -13 -7 -20 -20 -20 -13 0 -20 7 -20 20 0 11 -4 20 -10 20 -5
0 -10 -9 -10 -20 0 -15 -7 -20 -25 -20 -14 0 -25 -4 -25 -10 0 -5 -16 -10 -35
-10 -19 0 -35 5 -35 10 0 6 -11 10 -25 10 -18 0 -25 5 -25 20 0 11 -4 20 -10
20 -5 0 -10 -9 -10 -20 0 -13 -7 -20 -20 -20 -13 0 -20 7 -20 20 0 11 -4 20
-10 20 -5 0 -10 -9 -10 -20 0 -28 -20 -25 -21 3 l-2 22 -4 -22 c-10 -50 -23
-19 -23 52 0 43 4 75 10 75 6 0 11 -10 11 -22 l2 -23 4 23 c5 27 23 29 23 2 0
-11 5 -20 10 -20 6 0 10 9 10 20 0 13 7 20 20 20 13 0 20 -7 20 -20 0 -11 5
-20 10 -20 6 0 10 9 10 20 0 15 7 20 25 20 14 0 25 5 25 10 0 6 9 10 20 10 13
0 20 -7 20 -20z m-1498 -17 c5 -62 5 -81 1 -105 -4 -18 -12 -28 -23 -28 -11 0
-19 10 -23 28 -4 24 -4 43 1 105 1 10 10 17 22 17 12 0 21 -7 22 -17z m190 0
c5 -62 5 -81 1 -105 -4 -18 -12 -28 -23 -28 -11 0 -19 10 -23 28 -4 24 -4 43
1 105 1 10 10 17 22 17 12 0 21 -7 22 -17z m479 -5 l2 -23 4 23 c10 49 23 18
23 -53 0 -43 -4 -75 -10 -75 -5 0 -11 10 -11 23 l-2 22 -4 -22 c-10 -50 -23
-19 -23 52 0 43 4 75 10 75 6 0 11 -10 11 -22z m599 -52 l0 -73 -46 -7 c-88
-12 -84 -14 -84 64 l0 70 40 0 c22 0 40 5 40 10 0 6 11 10 25 10 24 0 25 -2
25 -74z m502 57 c9 -106 3 -133 -28 -133 -23 0 -24 3 -24 75 0 73 1 75 25 75
17 0 26 -6 27 -17z m-1852 -108 c0 -14 -4 -25 -10 -25 -5 0 -10 11 -10 25 0
14 5 25 10 25 6 0 10 -11 10 -25z m130 0 c0 -14 -4 -25 -10 -25 -5 0 -10 11
-10 25 0 14 5 25 10 25 6 0 10 -11 10 -25z m60 0 c0 -14 -4 -25 -10 -25 -5 0
-10 11 -10 25 0 14 5 25 10 25 6 0 10 -11 10 -25z m130 0 c0 -14 -4 -25 -10
-25 -5 0 -10 11 -10 25 0 14 5 25 10 25 6 0 10 -11 10 -25z m60 0 c0 -14 -4
-25 -10 -25 -5 0 -10 11 -10 25 0 14 5 25 10 25 6 0 10 -11 10 -25z m510 0 c0
-8 -4 -17 -10 -20 -6 -4 -10 5 -10 20 0 15 4 24 10 20 6 -3 10 -12 10 -20z
m70 -5 c0 -20 -5 -30 -15 -30 -10 0 -15 10 -15 30 0 20 5 30 15 30 10 0 15
-10 15 -30z m60 0 c0 -20 -5 -30 -15 -30 -10 0 -15 10 -15 30 0 20 5 30 15 30
10 0 15 -10 15 -30z m70 0 c0 -23 -4 -30 -20 -30 -16 0 -20 7 -20 30 0 23 4
30 20 30 16 0 20 -7 20 -30z m60 0 c0 -20 -5 -30 -15 -30 -10 0 -15 10 -15 30
0 20 5 30 15 30 10 0 15 -10 15 -30z m60 0 c0 -20 -5 -30 -15 -30 -10 0 -15
10 -15 30 0 20 5 30 15 30 10 0 15 -10 15 -30z m240 -69 c0 -10 9 -21 20 -24
19 -5 21 -12 18 -74 l-3 -68 -37 -3 -38 -3 0 95 c0 89 1 96 20 96 13 0 20 -7
20 -19z m190 0 c0 -10 9 -21 20 -24 19 -5 21 -12 18 -74 l-3 -68 -37 -3 -38
-3 0 95 c0 89 1 96 20 96 13 0 20 -7 20 -19z m-889 -23 l2 -23 4 23 c10 49 23
18 23 -53 0 -43 -4 -75 -10 -75 -5 0 -11 10 -11 23 l-2 22 -4 -22 c-10 -50
-23 -19 -23 52 0 43 4 75 10 75 6 0 11 -10 11 -22z m1101 5 c9 -106 3 -133
-28 -133 -23 0 -24 3 -24 75 0 73 1 75 25 75 17 0 26 -6 27 -17z m-684 -70
l-3 -68 -57 -2 c-58 -2 -58 -2 -58 28 0 22 5 29 19 29 12 0 21 -8 24 -22 2
-13 5 5 6 40 l1 62 35 0 36 0 -3 -67z m-1168 -38 c0 -14 -4 -25 -10 -25 -5 0
-10 11 -10 25 0 14 5 25 10 25 6 0 10 -11 10 -25z m70 0 c0 -8 -4 -17 -10 -20
-6 -4 -10 5 -10 20 0 15 4 24 10 20 6 -3 10 -12 10 -20z m60 0 c0 -14 -4 -25
-10 -25 -5 0 -10 11 -10 25 0 14 5 25 10 25 6 0 10 -11 10 -25z m60 0 c0 -14
-4 -25 -10 -25 -5 0 -10 11 -10 25 0 14 5 25 10 25 6 0 10 -11 10 -25z m66
-11 c-5 -13 -10 -14 -18 -6 -6 6 -8 18 -4 28 5 13 10 14 18 6 6 -6 8 -18 4
-28z m64 11 c0 -14 -4 -25 -10 -25 -5 0 -10 11 -10 25 0 14 5 25 10 25 6 0 10
-11 10 -25z m60 0 c0 -14 -4 -25 -10 -25 -5 0 -10 11 -10 25 0 14 5 25 10 25
6 0 10 -11 10 -25z m440 0 c0 -14 -4 -25 -10 -25 -5 0 -10 11 -10 25 0 14 5
25 10 25 6 0 10 -11 10 -25z m80 -5 c0 -20 -5 -30 -15 -30 -10 0 -15 10 -15
30 0 20 5 30 15 30 10 0 15 -10 15 -30z m60 0 c0 -20 -5 -30 -15 -30 -10 0
-15 10 -15 30 0 20 5 30 15 30 10 0 15 -10 15 -30z m60 0 c0 -20 -5 -30 -15
-30 -10 0 -15 10 -15 30 0 20 5 30 15 30 10 0 15 -10 15 -30z m190 0 c0 -20
-5 -30 -15 -30 -10 0 -15 10 -15 30 0 20 5 30 15 30 10 0 15 -10 15 -30z m70
0 c0 -23 -4 -30 -20 -30 -16 0 -20 7 -20 30 0 23 4 30 20 30 16 0 20 -7 20
-30z m60 0 c0 -20 -5 -30 -15 -30 -10 0 -15 10 -15 30 0 20 5 30 15 30 10 0
15 -10 15 -30z m60 0 c0 -11 -4 -20 -10 -20 -5 0 -10 9 -10 20 0 11 5 20 10
20 6 0 10 -9 10 -20z m120 0 c0 -11 -4 -20 -10 -20 -5 0 -10 9 -10 20 0 11 5
20 10 20 6 0 10 -9 10 -20z m70 0 c0 -11 -7 -20 -15 -20 -8 0 -15 9 -15 20 0
11 7 20 15 20 8 0 15 -9 15 -20z m120 0 c0 -11 -4 -20 -10 -20 -5 0 -10 9 -10
20 0 11 5 20 10 20 6 0 10 -9 10 -20z m65 0 c0 -7 -6 -15 -12 -17 -8 -3 -13 4
-13 17 0 13 5 20 13 18 6 -3 12 -11 12 -18z m-1505 -90 c0 -11 5 -20 10 -20 6
0 10 9 10 20 0 28 20 25 21 -2 l2 -23 4 23 c10 49 23 18 23 -53 0 -43 -4 -75
-10 -75 -5 0 -11 10 -11 23 l-2 22 -4 -22 c-5 -28 -23 -30 -23 -3 0 11 -4 20
-10 20 -5 0 -10 -9 -10 -20 0 -13 -7 -20 -19 -20 -26 0 -31 33 -23 133 3 25
42 23 42 -3z m101 -2 l2 -23 4 23 c5 27 23 29 23 2 0 -11 5 -20 10 -20 6 0 10
9 10 20 0 13 7 20 20 20 13 0 20 -7 20 -20 0 -11 5 -20 10 -20 6 0 10 9 10 20
0 15 7 20 25 20 24 0 25 -2 25 -75 0 -73 -1 -75 -25 -75 -18 0 -25 5 -25 20 0
11 -4 20 -10 20 -5 0 -10 -9 -10 -20 0 -13 -7 -20 -20 -20 -13 0 -20 7 -20 20
0 11 -4 20 -10 20 -5 0 -10 -9 -10 -20 0 -28 -20 -25 -21 3 l-2 22 -4 -22
c-10 -50 -23 -19 -23 52 0 43 4 75 10 75 6 0 11 -10 11 -22z m190 0 l2 -23 4
23 c10 49 23 18 23 -53 0 -43 -4 -75 -10 -75 -5 0 -11 10 -11 23 l-2 22 -4
-22 c-10 -50 -23 -19 -23 52 0 43 4 75 10 75 6 0 11 -10 11 -22z m91 5 c5 -62
5 -81 1 -105 -4 -18 -12 -28 -23 -28 -11 0 -19 10 -23 28 -4 24 -4 43 1 105 1
10 10 17 22 17 12 0 21 -7 22 -17z m698 -58 c0 -72 -1 -75 -23 -75 -13 0 -28
-5 -34 -11 -6 -6 -23 -9 -39 -7 -29 3 -29 3 -29 73 l0 70 38 0 c23 0 37 5 37
13 0 6 11 12 25 12 24 0 25 -2 25 -75z m31 53 l2 -23 4 23 c5 27 23 29 23 2 0
-11 5 -20 10 -20 6 0 10 9 10 20 0 13 7 20 20 20 13 0 20 -7 20 -20 0 -11 5
-20 10 -20 6 0 10 9 10 20 0 15 7 20 25 20 26 0 26 -1 23 -72 -3 -67 -5 -73
-25 -76 -18 -3 -23 2 -23 17 0 12 -4 21 -10 21 -5 0 -10 -9 -10 -20 0 -13 -7
-20 -20 -20 -13 0 -20 7 -20 20 0 11 -4 20 -10 20 -5 0 -10 -9 -10 -20 0 -28
-20 -25 -21 3 l-2 22 -4 -22 c-10 -50 -23 -19 -23 52 0 43 4 75 10 75 6 0 11
-10 11 -22z m190 0 l2 -23 4 23 c10 49 23 18 23 -53 0 -43 -4 -75 -10 -75 -5
0 -11 10 -11 23 l-2 22 -4 -22 c-10 -50 -23 -19 -23 52 0 43 4 75 10 75 6 0
11 -10 11 -22z m89 2 c0 -11 5 -20 10 -20 6 0 10 9 10 20 0 13 7 20 20 20 13
0 20 -7 20 -20 0 -11 5 -20 10 -20 6 0 10 9 10 20 0 28 20 25 21 -2 l2 -23 4
23 c10 49 23 18 23 -53 0 -43 -4 -75 -10 -75 -5 0 -11 10 -11 23 l-2 22 -4
-22 c-5 -28 -23 -30 -23 -3 0 11 -4 20 -10 20 -5 0 -10 -9 -10 -20 0 -13 -7
-20 -20 -20 -13 0 -20 7 -20 20 0 11 -4 20 -10 20 -5 0 -10 -9 -10 -20 0 -15
-7 -20 -25 -20 -24 0 -25 2 -25 75 0 73 1 75 25 75 18 0 25 -5 25 -20z m192 3
c9 -106 3 -133 -28 -133 -23 0 -24 3 -24 75 0 73 1 75 25 75 17 0 26 -6 27
-17z m-1852 -108 c0 -14 -4 -25 -10 -25 -5 0 -10 11 -10 25 0 14 5 25 10 25 6
0 10 -11 10 -25z m70 0 c0 -8 -4 -17 -10 -20 -6 -4 -10 5 -10 20 0 15 4 24 10
20 6 -3 10 -12 10 -20z m60 0 c0 -14 -4 -25 -10 -25 -5 0 -10 11 -10 25 0 14
5 25 10 25 6 0 10 -11 10 -25z m60 0 c0 -14 -4 -25 -10 -25 -5 0 -10 11 -10
25 0 14 5 25 10 25 6 0 10 -11 10 -25z m580 -5 c0 -20 -5 -30 -15 -30 -10 0
-15 10 -15 30 0 20 5 30 15 30 10 0 15 -10 15 -30z m60 0 c0 -20 -5 -30 -15
-30 -10 0 -15 10 -15 30 0 20 5 30 15 30 10 0 15 -10 15 -30z m70 0 c0 -20 -5
-30 -15 -30 -10 0 -15 10 -15 30 0 20 5 30 15 30 10 0 15 -10 15 -30z m60 0
c0 -20 -5 -30 -15 -30 -10 0 -15 10 -15 30 0 20 5 30 15 30 10 0 15 -10 15
-30z m60 0 c0 -20 -5 -30 -15 -30 -10 0 -15 10 -15 30 0 20 5 30 15 30 10 0
15 -10 15 -30z m70 0 c0 -23 -4 -30 -20 -30 -16 0 -20 7 -20 30 0 23 4 30 20
30 16 0 20 -7 20 -30z m60 0 c0 -20 -5 -30 -15 -30 -10 0 -15 10 -15 30 0 20
5 30 15 30 10 0 15 -10 15 -30z m60 0 c0 -20 -5 -30 -15 -30 -10 0 -15 10 -15
30 0 20 5 30 15 30 10 0 15 -10 15 -30z m-140 -69 c0 -10 9 -21 20 -24 19 -5
21 -12 18 -74 -3 -63 -5 -68 -27 -71 -12 -2 -34 -1 -47 2 -20 5 -24 13 -26 49
l-1 42 -4 -42 c-3 -29 -9 -43 -19 -43 -11 0 -14 18 -14 85 0 69 3 85 15 85 8
0 15 -9 15 -20 0 -11 7 -20 15 -20 9 0 15 9 15 25 0 18 5 25 20 25 13 0 20 -7
20 -19z m475 -76 l0 -80 -32 -3 -33 -3 0 86 0 86 33 -3 32 -3 0 -80z m-1463
58 c5 -62 5 -81 1 -105 -4 -18 -12 -28 -23 -28 -11 0 -19 10 -23 28 -4 24 -4
43 1 105 1 10 10 17 22 17 12 0 21 -7 22 -17z m190 0 c5 -62 5 -81 1 -105 -4
-18 -12 -28 -23 -28 -11 0 -19 10 -23 28 -4 24 -4 43 1 105 1 10 10 17 22 17
12 0 21 -7 22 -17z m99 -5 l2 -23 4 23 c5 26 22 30 25 5 5 -62 5 -81 1 -105
-7 -34 -22 -37 -24 -5 l-2 22 -4 -22 c-10 -50 -23 -19 -23 52 0 43 4 75 10 75
6 0 11 -10 11 -22z m279 2 c0 -11 5 -20 10 -20 6 0 10 9 10 20 0 26 39 28 42
3 8 -100 3 -133 -23 -133 -12 0 -19 7 -19 20 0 11 -4 20 -10 20 -5 0 -10 -9
-10 -20 0 -13 -7 -20 -19 -20 -26 0 -31 33 -23 133 3 25 42 23 42 -3z m203
-56 c8 -73 2 -86 -37 -82 l-31 3 -3 68 -3 67 34 0 c34 0 34 0 40 -56z m-853
-49 c0 -14 -4 -25 -10 -25 -5 0 -10 11 -10 25 0 14 5 25 10 25 6 0 10 -11 10
-25z m140 -5 c0 -20 -5 -30 -15 -30 -10 0 -15 10 -15 30 0 20 5 30 15 30 10 0
15 -10 15 -30z m60 0 c0 -20 -5 -30 -15 -30 -10 0 -15 10 -15 30 0 20 5 30 15
30 10 0 15 -10 15 -30z m570 0 c0 -20 -5 -30 -15 -30 -10 0 -15 10 -15 30 0
20 5 30 15 30 10 0 15 -10 15 -30z m130 0 c0 -20 -5 -30 -15 -30 -10 0 -15 10
-15 30 0 20 5 30 15 30 10 0 15 -10 15 -30z m60 0 c0 -20 -5 -30 -15 -30 -10
0 -15 10 -15 30 0 20 5 30 15 30 10 0 15 -10 15 -30z m190 0 c0 -20 -5 -30
-15 -30 -10 0 -15 10 -15 30 0 20 5 30 15 30 10 0 15 -10 15 -30z m60 0 c0
-20 -5 -30 -15 -30 -10 0 -15 10 -15 30 0 20 5 30 15 30 10 0 15 -10 15 -30z
m70 0 c0 -23 -4 -30 -20 -30 -16 0 -20 7 -20 30 0 23 4 30 20 30 16 0 20 -7
20 -30z m60 0 c0 -20 -5 -30 -15 -30 -10 0 -15 10 -15 30 0 20 5 30 15 30 10
0 15 -10 15 -30z m50 5 c0 -14 -4 -25 -10 -25 -5 0 -10 11 -10 25 0 14 5 25
10 25 6 0 10 -11 10 -25z m70 0 c0 -16 -6 -25 -15 -25 -9 0 -15 9 -15 25 0 16
6 25 15 25 9 0 15 -9 15 -25z m-360 -150 l0 -85 -30 0 -30 0 0 85 0 85 30 0
30 0 0 -85z m-919 58 c1 -17 2 -17 6 0 6 23 23 22 23 -3 0 -11 5 -20 10 -20 6
0 10 9 10 20 0 26 39 28 42 3 8 -100 3 -133 -23 -133 -12 0 -19 7 -19 20 0 11
-4 20 -10 20 -5 0 -10 -9 -10 -20 0 -28 -20 -25 -21 3 -2 22 -2 22 -6 1 -4
-22 -29 -34 -70 -34 -22 0 -23 4 -23 70 l0 70 35 0 c19 0 35 5 35 10 0 18 20
11 21 -7z m281 0 c5 -62 5 -81 1 -105 -4 -18 -12 -28 -23 -28 -11 0 -19 10
-23 28 -4 24 -4 43 1 105 1 10 10 17 22 17 12 0 21 -7 22 -17z m888 -57 l0
-73 -46 -7 c-88 -12 -84 -14 -84 64 l0 70 40 0 c22 0 40 5 40 10 0 6 11 10 25
10 24 0 25 -2 25 -74z m510 -11 l0 -85 -29 0 c-26 0 -30 4 -36 41 -4 22 -4 60
0 85 6 41 9 44 36 44 l29 0 0 -85z m-1860 -40 c0 -14 -4 -25 -10 -25 -5 0 -10
11 -10 25 0 14 5 25 10 25 6 0 10 -11 10 -25z m80 -5 c0 -23 -4 -30 -20 -30
-16 0 -20 7 -20 30 0 23 4 30 20 30 16 0 20 -7 20 -30z m500 0 c0 -20 -5 -30
-15 -30 -10 0 -15 10 -15 30 0 20 5 30 15 30 10 0 15 -10 15 -30z m60 0 c0
-20 -5 -30 -15 -30 -10 0 -15 10 -15 30 0 20 5 30 15 30 10 0 15 -10 15 -30z
m70 0 c0 -20 -5 -30 -15 -30 -10 0 -15 10 -15 30 0 20 5 30 15 30 10 0 15 -10
15 -30z m60 0 c0 -20 -5 -30 -15 -30 -10 0 -15 10 -15 30 0 20 5 30 15 30 10
0 15 -10 15 -30z m60 0 c0 -20 -5 -30 -15 -30 -10 0 -15 10 -15 30 0 20 5 30
15 30 10 0 15 -10 15 -30z m70 0 c0 -20 -5 -30 -15 -30 -10 0 -15 10 -15 30 0
20 5 30 15 30 10 0 15 -10 15 -30z m60 0 c0 -20 -5 -30 -15 -30 -10 0 -15 10
-15 30 0 20 5 30 15 30 10 0 15 -10 15 -30z m60 0 c0 -20 -5 -30 -15 -30 -10
0 -15 10 -15 30 0 20 5 30 15 30 10 0 15 -10 15 -30z m130 0 c0 -20 -5 -30
-15 -30 -10 0 -15 10 -15 30 0 20 5 30 15 30 10 0 15 -10 15 -30z m60 0 c0
-20 -5 -30 -15 -30 -10 0 -15 10 -15 30 0 20 5 30 15 30 10 0 15 -10 15 -30z
m180 5 c0 -14 -4 -25 -10 -25 -5 0 -10 11 -10 25 0 14 5 25 10 25 6 0 10 -11
10 -25z m70 0 c0 -16 -6 -25 -15 -25 -9 0 -15 9 -15 25 0 16 6 25 15 25 9 0
15 -9 15 -25z m-580 -84 c0 -10 9 -21 20 -24 17 -4 20 -14 20 -66 l0 -61 -35
0 -35 0 0 85 c0 69 3 85 15 85 8 0 15 -8 15 -19z m190 -1 c0 -11 7 -20 15 -20
12 0 15 -14 15 -65 l0 -65 -30 0 -30 0 0 85 c0 69 3 85 15 85 8 0 15 -9 15
-20z m668 -72 l-3 -93 -35 0 -35 0 -3 79 c-2 44 -1 85 2 93 3 7 20 13 41 13
l36 0 -3 -92z m-1656 65 c5 -62 5 -81 1 -105 -4 -18 -12 -28 -23 -28 -11 0
-19 10 -23 28 -4 24 -4 43 1 105 1 10 10 17 22 17 12 0 21 -7 22 -17z m188 -3
c0 -11 5 -20 10 -20 6 0 10 9 10 20 0 28 20 25 21 -2 l2 -23 4 23 c10 49 23
18 23 -53 0 -43 -4 -75 -10 -75 -5 0 -11 10 -11 23 l-2 22 -4 -22 c-5 -28 -23
-30 -23 -3 0 11 -4 20 -10 20 -5 0 -10 -9 -10 -20 0 -13 -7 -20 -19 -20 -26 0
-31 33 -23 133 3 25 42 23 42 -3z m101 -2 l2 -23 4 23 c5 27 23 29 23 2 0 -11
5 -20 10 -20 6 0 10 9 10 20 0 13 7 20 20 20 13 0 20 -7 20 -20 0 -11 5 -20
10 -20 6 0 10 9 10 20 0 15 7 20 25 20 24 0 25 -2 25 -75 0 -73 -1 -75 -25
-75 -18 0 -25 5 -25 20 0 11 -4 20 -10 20 -5 0 -10 -9 -10 -20 0 -13 -7 -20
-20 -20 -13 0 -20 7 -20 20 0 11 -4 20 -10 20 -5 0 -10 -9 -10 -20 0 -28 -20
-25 -21 3 l-2 22 -4 -22 c-10 -50 -23 -19 -23 52 0 43 4 75 10 75 6 0 11 -10
11 -22z m190 0 l2 -23 4 23 c10 49 23 18 23 -53 0 -43 -4 -75 -10 -75 -5 0
-11 10 -11 23 l-2 22 -4 -22 c-10 -50 -23 -19 -23 52 0 43 4 75 10 75 6 0 11
-10 11 -22z m91 5 c5 -62 5 -81 1 -105 -4 -18 -12 -28 -23 -28 -11 0 -19 10
-23 28 -4 24 -4 43 1 105 1 10 10 17 22 17 12 0 21 -7 22 -17z m628 -3 c0 -11
5 -20 10 -20 6 0 10 9 10 20 0 15 7 20 25 20 24 0 25 -2 25 -75 0 -73 -1 -75
-25 -75 -18 0 -25 5 -25 20 0 11 -4 20 -10 20 -5 0 -10 -9 -10 -20 0 -13 -7
-20 -19 -20 -26 0 -31 33 -23 133 3 25 42 23 42 -3z m261 -2 l2 -23 4 23 c3
15 11 22 28 22 19 0 24 -7 30 -41 4 -22 4 -60 0 -85 -5 -38 -9 -44 -31 -44
-18 0 -24 6 -25 23 l-2 22 -4 -22 c-3 -18 -11 -23 -34 -23 l-29 0 0 85 0 85
30 0 c24 0 30 -4 31 -22z m319 -63 l0 -85 -29 0 c-26 0 -30 4 -36 41 -4 22 -4
60 0 85 6 41 9 44 36 44 l29 0 0 -85z m-1860 -40 c0 -14 -4 -25 -10 -25 -5 0
-10 11 -10 25 0 14 5 25 10 25 6 0 10 -11 10 -25z m140 -5 c0 -20 -5 -30 -15
-30 -10 0 -15 10 -15 30 0 20 5 30 15 30 10 0 15 -10 15 -30z m60 0 c0 -20 -5
-30 -15 -30 -10 0 -15 10 -15 30 0 20 5 30 15 30 10 0 15 -10 15 -30z m510 0
c0 -20 -5 -30 -15 -30 -10 0 -15 10 -15 30 0 20 5 30 15 30 10 0 15 -10 15
-30z m60 0 c0 -20 -5 -30 -15 -30 -10 0 -15 10 -15 30 0 20 5 30 15 30 10 0
15 -10 15 -30z m60 0 c0 -20 -5 -30 -15 -30 -10 0 -15 10 -15 30 0 20 5 30 15
30 10 0 15 -10 15 -30z m130 0 c0 -20 -5 -30 -15 -30 -10 0 -15 10 -15 30 0
20 5 30 15 30 10 0 15 -10 15 -30z m60 0 c0 -20 -5 -30 -15 -30 -10 0 -15 10
-15 30 0 20 5 30 15 30 10 0 15 -10 15 -30z m130 0 c0 -20 -5 -30 -15 -30 -10
0 -15 10 -15 30 0 20 5 30 15 30 10 0 15 -10 15 -30z m60 0 c0 -20 -5 -30 -15
-30 -10 0 -15 10 -15 30 0 20 5 30 15 30 10 0 15 -10 15 -30z m-770 -80 c0
-11 7 -20 15 -20 12 0 15 -14 15 -65 l0 -65 -65 0 -65 0 0 70 0 70 30 0 c20 0
30 5 30 15 0 8 9 15 20 15 13 0 20 -7 20 -20z m-259 -7 c1 -17 2 -17 6 0 5 18
23 24 23 8 0 -6 17 -11 38 -13 l37 -3 0 -65 c0 -61 -2 -65 -24 -68 -41 -6 -71
7 -72 31 -1 19 -2 20 -6 3 -10 -39 -30 -49 -88 -41 -53 6 -55 8 -55 36 0 22 5
29 19 29 16 0 20 8 23 38 3 35 5 37 41 40 20 2 37 7 37 13 0 17 20 9 21 -8z
m529 8 c0 -6 17 -11 38 -13 l37 -3 3 -66 3 -67 -98 2 -98 1 -3 68 -3 67 41 0
c22 0 40 5 40 10 0 6 9 10 20 10 11 0 20 -4 20 -9z m960 -76 l0 -85 -29 0
c-26 0 -30 4 -36 41 -4 22 -4 60 0 85 6 41 9 44 36 44 l29 0 0 -85z m250 0 l0
-85 -30 0 -30 0 0 85 0 85 30 0 30 0 0 -85z m-1590 -45 c0 -20 -5 -30 -15 -30
-10 0 -15 10 -15 30 0 20 5 30 15 30 10 0 15 -10 15 -30z m190 0 c0 -20 -5
-30 -15 -30 -10 0 -15 10 -15 30 0 20 5 30 15 30 10 0 15 -10 15 -30z m60 0
c0 -20 -5 -30 -15 -30 -10 0 -15 10 -15 30 0 20 5 30 15 30 10 0 15 -10 15
-30z m250 0 c0 -20 -5 -30 -15 -30 -10 0 -15 10 -15 30 0 20 5 30 15 30 10 0
15 -10 15 -30z m70 0 c0 -35 -25 -42 -35 -10 -8 24 1 40 21 40 9 0 14 -11 14
-30z m60 0 c0 -20 -5 -30 -15 -30 -10 0 -15 10 -15 30 0 20 5 30 15 30 10 0
15 -10 15 -30z m60 0 c0 -20 -5 -30 -15 -30 -10 0 -15 10 -15 30 0 20 5 30 15
30 10 0 15 -10 15 -30z m70 0 c0 -23 -4 -30 -20 -30 -16 0 -20 7 -20 30 0 23
4 30 20 30 16 0 20 -7 20 -30z m60 0 c0 -20 -5 -30 -15 -30 -10 0 -15 10 -15
30 0 20 5 30 15 30 10 0 15 -10 15 -30z m-880 -90 c0 -11 5 -20 10 -20 6 0 10
9 10 20 0 28 20 25 21 -2 l2 -23 4 23 c10 49 23 18 23 -53 0 -43 -4 -75 -10
-75 -5 0 -11 10 -11 23 l-2 22 -4 -22 c-5 -28 -23 -30 -23 -3 0 11 -4 20 -10
20 -5 0 -10 -8 -10 -19 0 -14 -10 -20 -37 -25 -84 -13 -83 -14 -83 64 l0 70
40 0 c22 0 40 5 40 10 0 6 9 10 20 10 13 0 20 -7 20 -20z m101 -2 l2 -23 4 23
c5 26 22 30 25 5 5 -62 5 -81 1 -105 -7 -34 -22 -37 -24 -5 l-2 22 -4 -22
c-10 -50 -23 -19 -23 52 0 43 4 75 10 75 6 0 11 -10 11 -22z m659 2 c0 -11 5
-20 10 -20 6 0 10 9 10 20 0 13 7 20 20 20 13 0 20 -7 20 -20 0 -11 5 -20 10
-20 6 0 10 9 10 20 0 28 20 25 21 -2 l2 -23 4 23 c10 49 23 18 23 -53 0 -43
-4 -75 -10 -75 -5 0 -11 10 -11 23 l-2 22 -4 -22 c-5 -28 -23 -30 -23 -3 0 11
-4 20 -10 20 -5 0 -10 -9 -10 -20 0 -13 -7 -20 -20 -20 -13 0 -20 7 -20 20 0
11 -4 20 -10 20 -5 0 -10 -9 -10 -19 0 -12 -7 -20 -17 -20 -10 0 -37 -3 -60
-7 l-43 -7 0 72 0 71 35 0 c19 0 35 5 35 10 0 6 11 10 25 10 18 0 25 -5 25
-20z m161 -2 l2 -23 4 23 c5 27 23 29 23 2 0 -11 5 -20 10 -20 6 0 10 9 10 20
0 26 39 28 42 3 8 -100 3 -133 -23 -133 -12 0 -19 7 -19 20 0 11 -4 20 -10 20
-5 0 -10 -9 -10 -20 0 -28 -20 -25 -21 3 l-2 22 -4 -22 c-10 -50 -23 -19 -23
52 0 43 4 75 10 75 6 0 11 -10 11 -22z m190 0 l2 -23 4 23 c10 49 23 18 23
-53 0 -43 -4 -75 -10 -75 -5 0 -11 10 -11 23 l-2 22 -4 -22 c-10 -50 -23 -19
-23 52 0 43 4 75 10 75 6 0 11 -10 11 -22z m354 -22 c4 -25 4 -63 0 -85 -6
-37 -10 -41 -36 -41 l-29 0 0 85 0 85 29 0 c27 0 30 -3 36 -44z m125 -41 l0
-85 -29 0 c-26 0 -30 4 -36 41 -4 22 -4 60 0 85 6 41 9 44 36 44 l29 0 0 -85z
m-1860 -40 c0 -14 -4 -25 -10 -25 -5 0 -10 11 -10 25 0 14 5 25 10 25 6 0 10
-11 10 -25z m80 -5 c0 -23 -4 -30 -20 -30 -16 0 -20 7 -20 30 0 23 4 30 20 30
16 0 20 -7 20 -30z m60 0 c0 -20 -5 -30 -15 -30 -10 0 -15 10 -15 30 0 20 5
30 15 30 10 0 15 -10 15 -30z m320 0 c0 -23 -4 -30 -20 -30 -16 0 -20 7 -20
30 0 23 4 30 20 30 16 0 20 -7 20 -30z m60 0 c0 -20 -5 -30 -15 -30 -10 0 -15
10 -15 30 0 20 5 30 15 30 10 0 15 -10 15 -30z m60 0 c0 -20 -5 -30 -15 -30
-10 0 -15 10 -15 30 0 20 5 30 15 30 10 0 15 -10 15 -30z m60 0 c0 -20 -5 -30
-15 -30 -10 0 -15 10 -15 30 0 20 5 30 15 30 10 0 15 -10 15 -30z m70 0 c0
-20 -5 -30 -15 -30 -10 0 -15 10 -15 30 0 20 5 30 15 30 10 0 15 -10 15 -30z
m60 0 c0 -20 -5 -30 -15 -30 -10 0 -15 10 -15 30 0 20 5 30 15 30 10 0 15 -10
15 -30z m60 0 c0 -20 -5 -30 -15 -30 -10 0 -15 10 -15 30 0 20 5 30 15 30 10
0 15 -10 15 -30z m70 0 c0 -35 -25 -42 -35 -10 -8 24 1 40 21 40 9 0 14 -11
14 -30z m-722 -72 c5 -18 10 -25 11 -15 1 24 21 22 21 -3 0 -11 5 -20 10 -20
6 0 10 9 10 20 0 13 7 20 19 20 26 0 31 -33 23 -132 -3 -26 -42 -24 -42 2 0
11 -4 20 -10 20 -5 0 -10 -9 -10 -20 0 -28 -20 -25 -21 3 -1 13 -6 4 -12 -20
-9 -41 -11 -43 -48 -43 l-39 0 0 110 0 110 39 0 c34 0 39 -3 49 -32z m482 -74
l0 -85 -32 3 -33 3 -3 69 c-4 86 0 96 38 96 l30 0 0 -86z m190 0 l0 -85 -32 3
-33 3 -3 69 c-4 86 0 96 38 96 l30 0 0 -86z m-479 54 l2 -23 4 23 c5 27 23 29
23 2 0 -11 5 -20 10 -20 6 0 10 9 10 20 0 26 39 28 42 3 8 -100 3 -133 -23
-133 -12 0 -19 7 -19 20 0 11 -4 20 -10 20 -5 0 -10 -9 -10 -20 0 -28 -20 -25
-21 3 l-2 22 -4 -22 c-10 -50 -23 -19 -23 52 0 43 4 75 10 75 6 0 11 -10 11
-22z m570 0 l2 -23 4 23 c10 49 23 18 23 -53 0 -43 -4 -75 -10 -75 -5 0 -11
10 -11 23 l-2 22 -4 -22 c-10 -53 -33 -2 -28 62 1 17 3 38 3 48 3 25 22 21 23
-5z m91 5 c9 -106 4 -130 -28 -130 -23 0 -24 2 -24 73 0 72 1 74 25 74 17 0
26 -6 27 -17z m763 -27 c4 -25 4 -63 0 -85 -6 -34 -11 -41 -30 -41 -19 0 -24
7 -30 41 -4 22 -4 60 0 85 5 38 10 44 30 44 20 0 25 -6 30 -44z m-585 -81 c0
-24 -5 -35 -15 -35 -10 0 -15 11 -15 35 0 24 5 35 15 35 10 0 15 -11 15 -35z
m68 -3 c3 -27 0 -32 -17 -32 -17 0 -21 6 -21 36 0 28 3 35 18 32 11 -2 18 -14
20 -36z m-1278 3 c0 -14 -4 -25 -10 -25 -5 0 -10 11 -10 25 0 14 5 25 10 25 6
0 10 -11 10 -25z m80 -5 c0 -23 -4 -30 -20 -30 -16 0 -20 7 -20 30 0 23 4 30
20 30 16 0 20 -7 20 -30z m430 5 c0 -14 -4 -25 -10 -25 -5 0 -10 11 -10 25 0
14 5 25 10 25 6 0 10 -11 10 -25z m70 -5 c0 -20 -5 -30 -15 -30 -10 0 -15 10
-15 30 0 20 5 30 15 30 10 0 15 -10 15 -30z m130 0 c0 -20 -5 -30 -15 -30 -10
0 -15 10 -15 30 0 20 5 30 15 30 10 0 15 -10 15 -30z m50 5 c0 -14 -4 -25 -10
-25 -5 0 -10 11 -10 25 0 14 5 25 10 25 6 0 10 -11 10 -25z m140 -5 c0 -35
-25 -42 -35 -10 -8 24 1 40 21 40 9 0 14 -11 14 -30z m440 0 c0 -20 -5 -30
-15 -30 -10 0 -15 10 -15 30 0 20 5 30 15 30 10 0 15 -10 15 -30z m60 0 c0
-20 -5 -30 -15 -30 -10 0 -15 10 -15 30 0 20 5 30 15 30 10 0 15 -10 15 -30z
m60 0 c0 -20 -5 -30 -15 -30 -10 0 -15 10 -15 30 0 20 5 30 15 30 10 0 15 -10
15 -30z m70 -5 c0 -28 -4 -35 -20 -35 -16 0 -20 7 -20 35 0 28 4 35 20 35 16
0 20 -7 20 -35z m70 0 c0 -31 -3 -35 -25 -35 -22 0 -25 4 -25 35 0 31 3 35 25
35 22 0 25 -4 25 -35z m60 0 c0 -28 -4 -35 -20 -35 -16 0 -20 7 -20 35 0 28 4
35 20 35 16 0 20 -7 20 -35z m-580 5 c0 -11 -4 -20 -10 -20 -5 0 -10 9 -10 20
0 11 5 20 10 20 6 0 10 -9 10 -20z m60 0 c0 -11 -4 -20 -10 -20 -5 0 -10 9
-10 20 0 11 5 20 10 20 6 0 10 -9 10 -20z m-1058 -87 c5 -62 5 -81 1 -105 -7
-38 -39 -38 -46 0 -4 24 -4 43 1 105 1 10 10 17 22 17 12 0 21 -7 22 -17z m99
0 c1 -17 2 -17 6 0 2 9 9 17 14 17 5 0 10 -8 11 -17 5 -62 5 -81 1 -105 -7
-34 -22 -37 -24 -5 l-2 22 -4 -22 c-10 -50 -23 -19 -23 52 0 43 4 75 10 75 6
0 11 -8 11 -17z m281 0 c5 -62 5 -81 1 -105 -4 -18 -12 -28 -23 -28 -11 0 -19
10 -23 28 -4 24 -4 43 1 105 1 10 10 17 22 17 12 0 21 -7 22 -17z m479 -5 l2
-23 4 23 c10 49 23 18 23 -53 0 -43 -4 -75 -10 -75 -5 0 -11 10 -11 23 l-2 22
-4 -22 c-10 -53 -33 -2 -28 62 1 17 3 38 3 48 3 25 22 21 23 -5z m91 5 c9
-106 3 -133 -28 -133 -23 0 -24 3 -24 75 0 73 1 75 25 75 17 0 26 -6 27 -17z
m159 -5 l2 -23 4 23 c5 26 22 30 25 5 5 -62 5 -81 1 -105 -7 -34 -22 -37 -24
-5 l-2 22 -4 -22 c-10 -50 -23 -19 -23 52 0 43 4 75 10 75 6 0 11 -10 11 -22z
m341 5 c5 -62 5 -81 1 -105 -4 -18 -12 -28 -23 -28 -11 0 -19 10 -23 28 -4 24
-4 43 1 105 1 10 10 17 22 17 12 0 21 -7 22 -17z m-868 -65 c7 -70 1 -81 -40
-76 -28 3 -29 4 -32 71 l-3 67 34 0 34 0 7 -62z m-664 -43 c0 -14 -4 -25 -10
-25 -5 0 -10 11 -10 25 0 14 5 25 10 25 6 0 10 -11 10 -25z m140 -5 c0 -20 -5
-30 -15 -30 -10 0 -15 10 -15 30 0 20 5 30 15 30 10 0 15 -10 15 -30z m380 0
c0 -20 -5 -30 -15 -30 -10 0 -15 10 -15 30 0 20 5 30 15 30 10 0 15 -10 15
-30z m60 0 c0 -20 -5 -30 -15 -30 -10 0 -15 10 -15 30 0 20 5 30 15 30 10 0
15 -10 15 -30z m130 0 c0 -20 -5 -30 -15 -30 -10 0 -15 10 -15 30 0 20 5 30
15 30 10 0 15 -10 15 -30z m50 5 c0 -14 -4 -25 -10 -25 -5 0 -10 11 -10 25 0
14 5 25 10 25 6 0 10 -11 10 -25z m60 0 c0 -14 -4 -25 -10 -25 -5 0 -10 11
-10 25 0 14 5 25 10 25 6 0 10 -11 10 -25z m70 0 c0 -8 -4 -17 -10 -20 -6 -4
-10 5 -10 20 0 15 4 24 10 20 6 -3 10 -12 10 -20z m376 -11 c-5 -13 -10 -14
-18 -6 -6 6 -8 18 -4 28 5 13 10 14 18 6 6 -6 8 -18 4 -28z m384 6 c0 -20 -5
-30 -15 -30 -10 0 -15 10 -15 30 0 20 5 30 15 30 10 0 15 -10 15 -30z m-570 0
c0 -11 -4 -20 -10 -20 -5 0 -10 9 -10 20 0 11 5 20 10 20 6 0 10 -9 10 -20z
m60 0 c0 -11 -4 -20 -10 -20 -5 0 -10 9 -10 20 0 11 5 20 10 20 6 0 10 -9 10
-20z m-959 -87 c1 -17 2 -17 6 0 6 23 23 22 23 -3 0 -11 5 -20 10 -20 6 0 10
9 10 20 0 26 39 28 42 3 8 -100 3 -133 -23 -133 -12 0 -19 7 -19 20 0 11 -4
20 -10 20 -5 0 -10 -9 -10 -20 0 -28 -20 -25 -21 3 l-2 22 -4 -22 c-10 -50
-23 -19 -23 52 0 43 4 75 10 75 6 0 11 -8 11 -17z m190 -5 l2 -23 4 23 c5 27
23 29 23 2 0 -11 5 -20 10 -20 6 0 10 9 10 20 0 26 39 28 42 3 8 -100 3 -133
-23 -133 -12 0 -19 7 -19 20 0 11 -4 20 -10 20 -5 0 -10 -9 -10 -20 0 -28 -20
-25 -21 3 l-2 22 -4 -22 c-10 -50 -23 -19 -23 52 0 43 4 75 10 75 6 0 11 -10
11 -22z m820 0 l2 -23 4 23 c5 26 22 30 25 5 5 -62 5 -81 1 -105 -7 -34 -22
-37 -24 -5 l-2 22 -4 -22 c-10 -50 -23 -19 -23 52 0 43 4 75 10 75 6 0 11 -10
11 -22z m159 -53 c0 -72 -1 -75 -24 -75 -31 0 -37 27 -28 133 1 11 10 17 27
17 24 0 25 -2 25 -75z m31 53 l2 -23 4 23 c10 49 23 18 23 -53 0 -43 -4 -75
-10 -75 -5 0 -11 10 -11 23 l-2 22 -4 -22 c-10 -50 -23 -19 -23 52 0 43 4 75
10 75 6 0 11 -10 11 -22z m-1381 -103 c0 -14 -4 -25 -10 -25 -5 0 -10 11 -10
25 0 14 5 25 10 25 6 0 10 -11 10 -25z m70 0 c0 -8 -4 -17 -10 -20 -6 -4 -10
5 -10 20 0 15 4 24 10 20 6 -3 10 -12 10 -20z m60 0 c0 -14 -4 -25 -10 -25 -5
0 -10 11 -10 25 0 14 5 25 10 25 6 0 10 -11 10 -25z m380 0 c0 -14 -4 -25 -10
-25 -5 0 -10 11 -10 25 0 14 5 25 10 25 6 0 10 -11 10 -25z m70 -5 c0 -20 -5
-30 -15 -30 -10 0 -15 10 -15 30 0 20 5 30 15 30 10 0 15 -10 15 -30z m60 0
c0 -20 -5 -30 -15 -30 -10 0 -15 10 -15 30 0 20 5 30 15 30 10 0 15 -10 15
-30z m70 0 c0 -20 -5 -30 -15 -30 -10 0 -15 10 -15 30 0 20 5 30 15 30 10 0
15 -10 15 -30z m60 0 c0 -20 -5 -30 -15 -30 -10 0 -15 10 -15 30 0 20 5 30 15
30 10 0 15 -10 15 -30z m60 0 c0 -20 -5 -30 -15 -30 -10 0 -15 10 -15 30 0 20
5 30 15 30 10 0 15 -10 15 -30z m70 0 c0 -20 -5 -30 -15 -30 -10 0 -15 10 -15
30 0 20 5 30 15 30 10 0 15 -10 15 -30z m60 0 c0 -20 -5 -30 -15 -30 -10 0
-15 10 -15 30 0 20 5 30 15 30 10 0 15 -10 15 -30z m60 0 c0 -20 -5 -30 -15
-30 -10 0 -15 10 -15 30 0 20 5 30 15 30 10 0 15 -10 15 -30z m630 0 c0 -20
-5 -30 -15 -30 -10 0 -15 10 -15 30 0 20 5 30 15 30 10 0 15 -10 15 -30z m70
0 c0 -20 -5 -30 -15 -30 -10 0 -15 10 -15 30 0 20 5 30 15 30 10 0 15 -10 15
-30z m60 0 c0 -20 -5 -30 -15 -30 -10 0 -15 10 -15 30 0 20 5 30 15 30 10 0
15 -10 15 -30z m60 0 c0 -20 -5 -30 -15 -30 -10 0 -15 10 -15 30 0 20 5 30 15
30 10 0 15 -10 15 -30z m70 0 c0 -23 -4 -30 -20 -30 -16 0 -20 7 -20 30 0 23
4 30 20 30 16 0 20 -7 20 -30z m-830 0 c0 -11 -4 -20 -10 -20 -5 0 -10 9 -10
20 0 11 5 20 10 20 6 0 10 -9 10 -20z m60 0 c0 -11 -4 -20 -10 -20 -5 0 -10 9
-10 20 0 11 5 20 10 20 6 0 10 -9 10 -20z m-870 -90 c0 -11 5 -20 10 -20 6 0
10 9 10 20 0 28 20 25 21 -2 l2 -23 4 23 c10 49 23 18 23 -53 0 -43 -4 -75
-10 -75 -5 0 -11 10 -11 23 l-2 22 -4 -22 c-5 -28 -23 -30 -23 -3 0 11 -4 20
-10 20 -5 0 -10 -9 -10 -20 0 -13 -7 -20 -19 -20 -26 0 -31 33 -23 133 3 25
42 23 42 -3z m101 -2 l2 -23 4 23 c5 26 22 30 25 5 5 -62 5 -81 1 -105 -7 -34
-22 -37 -24 -5 l-2 22 -4 -22 c-10 -50 -23 -19 -23 52 0 43 4 75 10 75 6 0 11
-10 11 -22z m341 5 c5 -62 5 -81 1 -105 -4 -18 -12 -28 -23 -28 -11 0 -19 10
-23 28 -4 24 -4 43 1 105 1 10 10 17 22 17 12 0 21 -7 22 -17z m229 -5 l2 -23
4 23 c10 49 23 18 23 -53 0 -43 -4 -75 -10 -75 -5 0 -11 10 -11 23 l-2 22 -4
-22 c-10 -53 -33 -2 -28 62 1 17 3 38 3 48 3 25 22 21 23 -5z m89 2 c0 -11 5
-20 10 -20 6 0 10 9 10 20 0 13 7 20 20 20 13 0 20 -7 20 -20 0 -11 5 -20 10
-20 6 0 10 9 10 20 0 28 20 25 21 -2 l2 -23 4 23 c10 49 23 18 23 -53 0 -43
-4 -75 -10 -75 -5 0 -11 10 -11 23 l-2 22 -4 -22 c-5 -28 -23 -30 -23 -3 0 11
-4 20 -10 20 -5 0 -10 -9 -10 -20 0 -13 -7 -20 -20 -20 -13 0 -20 7 -20 20 0
11 -4 20 -10 20 -5 0 -10 -8 -10 -19 0 -13 -7 -18 -25 -18 -24 0 -25 1 -25 73
0 72 1 74 25 74 18 0 25 -5 25 -20z m161 -2 l2 -23 4 23 c5 26 22 30 25 5 5
-62 5 -81 1 -105 -7 -34 -22 -37 -24 -5 l-2 22 -4 -22 c-10 -50 -23 -19 -23
52 0 43 4 75 10 75 6 0 11 -10 11 -22z m760 0 l2 -23 4 23 c10 49 23 18 23
-53 0 -43 -4 -75 -10 -75 -5 0 -11 10 -11 23 l-2 22 -4 -22 c-10 -53 -33 -2
-28 62 1 17 3 38 3 48 3 25 22 21 23 -5z m-1881 -103 c0 -8 -4 -17 -10 -20 -6
-4 -10 5 -10 20 0 15 4 24 10 20 6 -3 10 -12 10 -20z m60 0 c0 -14 -4 -25 -10
-25 -5 0 -10 11 -10 25 0 14 5 25 10 25 6 0 10 -11 10 -25z m60 0 c0 -14 -4
-25 -10 -25 -5 0 -10 11 -10 25 0 14 5 25 10 25 6 0 10 -11 10 -25z m256 -11
c-5 -13 -10 -14 -18 -6 -6 6 -8 18 -4 28 5 13 10 14 18 6 6 -6 8 -18 4 -28z
m64 11 c0 -14 -4 -25 -10 -25 -5 0 -10 11 -10 25 0 14 5 25 10 25 6 0 10 -11
10 -25z m60 0 c0 -14 -4 -25 -10 -25 -5 0 -10 11 -10 25 0 14 5 25 10 25 6 0
10 -11 10 -25z m60 0 c0 -14 -4 -25 -10 -25 -5 0 -10 11 -10 25 0 14 5 25 10
25 6 0 10 -11 10 -25z m130 0 c0 -14 -4 -25 -10 -25 -5 0 -10 11 -10 25 0 14
5 25 10 25 6 0 10 -11 10 -25z m60 0 c0 -14 -4 -25 -10 -25 -5 0 -10 11 -10
25 0 14 5 25 10 25 6 0 10 -11 10 -25z m70 0 c0 -8 -4 -17 -10 -20 -6 -4 -10
5 -10 20 0 15 4 24 10 20 6 -3 10 -12 10 -20z m-769 -97 l2 -23 4 23 c10 49
23 18 23 -53 0 -43 -4 -75 -10 -75 -5 0 -11 10 -11 23 l-2 22 -4 -22 c-10 -53
-33 -2 -28 62 1 17 3 38 3 48 3 25 22 21 23 -5z m409 -53 c0 -72 -1 -75 -24
-75 -31 0 -37 27 -28 133 1 11 10 17 27 17 24 0 25 -2 25 -75z m31 53 l2 -23
4 23 c10 49 23 18 23 -53 0 -43 -4 -75 -10 -75 -5 0 -11 10 -11 23 l-2 22 -4
-22 c-10 -50 -23 -19 -23 52 0 43 4 75 10 75 6 0 11 -10 11 -22z m789 -53 c0
-72 -1 -75 -24 -75 -31 0 -37 27 -28 133 1 11 10 17 27 17 24 0 25 -2 25 -75z
m-1350 -50 c0 -14 -4 -25 -10 -25 -5 0 -10 11 -10 25 0 14 5 25 10 25 6 0 10
-11 10 -25z m70 0 c0 -8 -4 -17 -10 -20 -6 -4 -10 5 -10 20 0 15 4 24 10 20 6
-3 10 -12 10 -20z m120 0 c0 -14 -4 -25 -10 -25 -5 0 -10 11 -10 25 0 14 5 25
10 25 6 0 10 -11 10 -25z m66 -11 c-5 -13 -10 -14 -18 -6 -6 6 -8 18 -4 28 5
13 10 14 18 6 6 -6 8 -18 4 -28z m64 11 c0 -14 -4 -25 -10 -25 -5 0 -10 11
-10 25 0 14 5 25 10 25 6 0 10 -11 10 -25z m60 0 c0 -14 -4 -25 -10 -25 -5 0
-10 11 -10 25 0 14 5 25 10 25 6 0 10 -11 10 -25z m66 -11 c-5 -13 -10 -14
-18 -6 -6 6 -8 18 -4 28 5 13 10 14 18 6 6 -6 8 -18 4 -28z m184 11 c0 -14 -4
-25 -10 -25 -5 0 -10 11 -10 25 0 14 5 25 10 25 6 0 10 -11 10 -25z m70 0 c0
-14 -4 -25 -10 -25 -5 0 -10 11 -10 25 0 14 5 25 10 25 6 0 10 -11 10 -25z
m60 0 c0 -14 -4 -25 -10 -25 -5 0 -10 11 -10 25 0 14 5 25 10 25 6 0 10 -11
10 -25z m60 0 c0 -14 -4 -25 -10 -25 -5 0 -10 11 -10 25 0 14 5 25 10 25 6 0
10 -11 10 -25z m70 0 c0 -8 -4 -17 -10 -20 -6 -4 -10 5 -10 20 0 15 4 24 10
20 6 -3 10 -12 10 -20z m60 0 c0 -14 -4 -25 -10 -25 -5 0 -10 11 -10 25 0 14
5 25 10 25 6 0 10 -11 10 -25z m60 0 c0 -14 -4 -25 -10 -25 -5 0 -10 11 -10
25 0 14 5 25 10 25 6 0 10 -11 10 -25z m66 -11 c-5 -13 -10 -14 -18 -6 -6 6
-8 18 -4 28 5 13 10 14 18 6 6 -6 8 -18 4 -28z m664 10 c0 -8 -7 -14 -15 -14
-15 0 -21 21 -9 33 10 9 24 -2 24 -19z"/>
<path d="M125 4942 c-10 -7 -18 -32 -10 -32 2 0 9 9 15 20 12 22 11 24 -5 12z"/>
<path d="M228 4923 c6 -2 18 -2 25 0 6 3 1 5 -13 5 -14 0 -19 -2 -12 -5z"/>
<path d="M338 4953 c6 -2 18 -2 25 0 6 3 1 5 -13 5 -14 0 -19 -2 -12 -5z"/>
<path d="M338 4893 c6 -2 18 -2 25 0 6 3 1 5 -13 5 -14 0 -19 -2 -12 -5z"/>
<path d="M280 4695 c0 -14 5 -25 10 -25 6 0 10 11 10 25 0 14 -4 25 -10 25 -5
0 -10 -11 -10 -25z"/>
<path d="M852 4695 c0 -16 2 -22 5 -12 2 9 2 23 0 30 -3 6 -5 -1 -5 -18z"/>
<path d="M970 4695 c0 -27 1 -28 24 -19 28 11 13 44 -20 44 -2 0 -4 -11 -4
-25z"/>
<path d="M90 4695 c0 -14 5 -25 10 -25 6 0 10 11 10 25 0 14 -4 25 -10 25 -5
0 -10 -11 -10 -25z"/>
<path d="M472 4695 c0 -16 2 -22 5 -12 2 9 2 23 0 30 -3 6 -5 -1 -5 -18z"/>
<path d="M590 4680 c0 -5 5 -10 10 -10 6 0 10 5 10 10 0 6 -4 10 -10 10 -5 0
-10 -4 -10 -10z"/>
<path d="M660 4694 c0 -17 4 -21 20 -17 11 3 20 13 20 22 0 10 -8 17 -20 17
-14 0 -20 -7 -20 -22z"/>
<path d="M1100 4695 c0 -14 5 -25 10 -25 6 0 10 11 10 25 0 14 -4 25 -10 25
-5 0 -10 -11 -10 -25z"/>
<path d="M1350 4695 c0 -14 5 -25 10 -25 6 0 10 11 10 25 0 14 -4 25 -10 25
-5 0 -10 -11 -10 -25z"/>
<path d="M1540 4680 c0 -5 5 -10 10 -10 6 0 10 5 10 10 0 6 -4 10 -10 10 -5 0
-10 -4 -10 -10z"/>
<path d="M2230 4680 c0 -5 5 -10 10 -10 6 0 10 5 10 10 0 6 -4 10 -10 10 -5 0
-10 -4 -10 -10z"/>
<path d="M2302 4695 c0 -16 2 -22 5 -12 2 9 2 23 0 30 -3 6 -5 -1 -5 -18z"/>
<path d="M2420 4680 c0 -5 5 -10 10 -10 6 0 10 5 10 10 0 6 -4 10 -10 10 -5 0
-10 -4 -10 -10z"/>
<path d="M2550 4680 c0 -5 5 -10 10 -10 6 0 10 5 10 10 0 6 -4 10 -10 10 -5 0
-10 -4 -10 -10z"/>
<path d="M2990 4695 c0 -14 5 -25 10 -25 6 0 10 11 10 25 0 14 -4 25 -10 25
-5 0 -10 -11 -10 -25z"/>
<path d="M3050 4680 c0 -5 5 -10 10 -10 6 0 10 5 10 10 0 6 -4 10 -10 10 -5 0
-10 -4 -10 -10z"/>
<path d="M3120 4695 c0 -18 4 -22 20 -18 11 3 20 11 20 18 0 7 -9 15 -20 18
-16 4 -20 0 -20 -18z"/>
<path d="M3560 4695 c0 -14 5 -25 10 -25 6 0 10 11 10 25 0 14 -4 25 -10 25
-5 0 -10 -11 -10 -25z"/>
<path d="M3692 4695 c0 -16 2 -22 5 -12 2 9 2 23 0 30 -3 6 -5 -1 -5 -18z"/>
<path d="M4322 4695 c0 -16 2 -22 5 -12 2 9 2 23 0 30 -3 6 -5 -1 -5 -18z"/>
<path d="M1546 4515 c-3 -8 -1 -15 4 -15 6 0 10 7 10 15 0 8 -2 15 -4 15 -2 0
-6 -7 -10 -15z"/>
<path d="M2420 4495 c0 -14 5 -25 10 -25 6 0 10 11 10 25 0 14 -4 25 -10 25
-5 0 -10 -11 -10 -25z"/>
<path d="M90 4495 c0 -14 5 -25 10 -25 6 0 10 11 10 25 0 14 -4 25 -10 25 -5
0 -10 -11 -10 -25z"/>
<path d="M150 4480 c0 -5 5 -10 10 -10 6 0 10 5 10 10 0 6 -4 10 -10 10 -5 0
-10 -4 -10 -10z"/>
<path d="M662 4495 c0 -16 2 -22 5 -12 2 9 2 23 0 30 -3 6 -5 -1 -5 -18z"/>
<path d="M780 4495 c0 -14 5 -25 10 -25 6 0 10 11 10 25 0 14 -4 25 -10 25 -5
0 -10 -11 -10 -25z"/>
<path d="M2110 4495 c0 -14 5 -25 10 -25 6 0 10 11 10 25 0 14 -4 25 -10 25
-5 0 -10 -11 -10 -25z"/>
<path d="M2492 4495 c0 -16 2 -22 5 -12 2 9 2 23 0 30 -3 6 -5 -1 -5 -18z"/>
<path d="M2800 4495 c0 -14 5 -25 10 -25 6 0 10 11 10 25 0 14 -4 25 -10 25
-5 0 -10 -11 -10 -25z"/>
<path d="M3312 4495 c0 -16 2 -22 5 -12 2 9 2 23 0 30 -3 6 -5 -1 -5 -18z"/>
<path d="M3370 4480 c0 -5 5 -10 10 -10 6 0 10 5 10 10 0 6 -4 10 -10 10 -5 0
-10 -4 -10 -10z"/>
<path d="M3870 4495 c0 -14 5 -25 10 -25 6 0 10 11 10 25 0 14 -4 25 -10 25
-5 0 -10 -11 -10 -25z"/>
<path d="M4000 4495 c0 -14 5 -25 10 -25 6 0 10 11 10 25 0 14 -4 25 -10 25
-5 0 -10 -11 -10 -25z"/>
<path d="M590 4295 c0 -14 5 -25 10 -25 6 0 10 11 10 25 0 14 -4 25 -10 25 -5
0 -10 -11 -10 -25z"/>
<path d="M1220 4295 c0 -14 5 -25 10 -25 6 0 10 11 10 25 0 14 -4 25 -10 25
-5 0 -10 -11 -10 -25z"/>
<path d="M1100 4280 c0 -5 5 -10 10 -10 6 0 10 5 10 10 0 6 -4 10 -10 10 -5 0
-10 -4 -10 -10z"/>
<path d="M1920 4295 c0 -14 5 -25 10 -25 6 0 10 11 10 25 0 14 -4 25 -10 25
-5 0 -10 -11 -10 -25z"/>
<path d="M2230 4280 c0 -5 5 -10 10 -10 6 0 10 5 10 10 0 6 -4 10 -10 10 -5 0
-10 -4 -10 -10z"/>
<path d="M2302 4295 c0 -16 2 -22 5 -12 2 9 2 23 0 30 -3 6 -5 -1 -5 -18z"/>
<path d="M150 4280 c0 -5 5 -10 10 -10 6 0 10 5 10 10 0 6 -4 10 -10 10 -5 0
-10 -4 -10 -10z"/>
<path d="M472 4295 c0 -16 2 -22 5 -12 2 9 2 23 0 30 -3 6 -5 -1 -5 -18z"/>
<path d="M1410 4295 c0 -14 5 -25 10 -25 6 0 10 11 10 25 0 14 -4 25 -10 25
-5 0 -10 -11 -10 -25z"/>
<path d="M1600 4280 c0 -5 5 -10 10 -10 6 0 10 5 10 10 0 6 -4 10 -10 10 -5 0
-10 -4 -10 -10z"/>
<path d="M1790 4280 c0 -5 5 -10 10 -10 6 0 10 5 10 10 0 6 -4 10 -10 10 -5 0
-10 -4 -10 -10z"/>
<path d="M3247 3608 c-9 -7 -21 -33 -26 -58 l-8 -45 -8 38 c-15 75 -38 80
-188 42 -107 -27 -233 -76 -271 -106 -13 -10 -29 -19 -34 -19 -15 0 -120 -80
-190 -145 -145 -134 -290 -378 -292 -491 0 -11 -7 -34 -15 -51 -18 -35 -40
-231 -31 -267 4 -17 16 -28 32 -32 l26 -7 -27 -22 c-27 -21 -28 -24 -21 -85
12 -106 52 -213 104 -282 57 -77 79 -82 130 -36 20 18 77 60 125 91 91 60 119
96 99 128 -8 12 -6 21 6 32 19 20 43 105 31 113 -5 3 -9 14 -9 25 0 27 -38 39
-127 39 -42 0 -73 3 -70 6 3 4 43 13 88 20 45 7 86 17 91 22 5 5 10 38 11 73
l2 64 -44 22 c-61 31 -60 33 2 26 49 -5 57 -3 69 16 9 15 23 21 47 21 l35 0
-22 20 c-22 21 -30 60 -12 60 6 0 10 4 10 10 0 24 62 103 116 147 70 56 76 63
70 86 -5 20 -2 21 24 7 13 -7 33 -5 72 9 45 16 77 26 154 46 16 5 24 55 25
169 l2 101 9 -65 c24 -163 32 -195 53 -198 11 -2 27 -11 37 -19 11 -9 18 -11
23 -4 3 6 22 11 41 11 19 0 34 5 34 10 0 6 5 10 10 10 6 0 10 -7 10 -15 0 -22
47 -42 62 -27 19 19 40 15 33 -7 -4 -13 2 -23 20 -35 14 -9 25 -24 25 -32 0
-11 6 -15 20 -11 10 3 27 -1 37 -8 10 -8 28 -11 41 -8 17 4 21 2 16 -11 -4
-10 9 -34 36 -66 23 -27 52 -69 64 -92 22 -41 25 -43 67 -43 24 1 68 8 97 17
28 9 52 15 52 13 0 -2 -36 -23 -80 -46 -64 -33 -80 -46 -80 -64 0 -18 7 -24
37 -30 l36 -7 -26 -21 c-26 -21 -27 -25 -21 -91 7 -64 9 -69 38 -81 28 -12 29
-14 11 -20 -42 -13 -50 -23 -50 -56 0 -19 -7 -41 -17 -51 -25 -25 -13 -45 56
-90 34 -22 50 -36 36 -32 -66 20 -116 31 -125 27 -12 -4 -75 -99 -75 -112 0
-5 20 -31 45 -59 25 -27 45 -53 45 -56 0 -3 -28 13 -61 36 -48 32 -65 39 -78
31 -17 -11 -19 -35 -6 -67 8 -17 6 -17 -24 -2 -34 18 -71 8 -71 -18 0 -8 -16
-16 -40 -20 -21 -3 -43 -12 -47 -20 -5 -8 -29 -16 -58 -18 -27 -2 -55 -7 -61
-11 -6 -3 -38 -10 -70 -13 -60 -7 -160 -48 -194 -79 -11 -10 -27 -40 -36 -69
-9 -28 -34 -89 -55 -135 -51 -109 -50 -124 4 -155 78 -45 150 -59 272 -53 273
14 513 113 703 291 34 32 52 57 52 72 0 17 6 24 19 24 36 0 171 196 171 249 0
14 8 34 19 45 20 23 52 115 73 211 7 34 12 122 12 205 0 117 -5 162 -23 235
-28 109 -43 135 -78 135 -25 0 -25 1 -10 18 25 28 20 60 -22 135 -126 228
-351 418 -596 503 -144 51 -353 79 -388 52z"/>
<path d="M2598 2120 c-57 -10 -105 -38 -148 -86 -57 -65 -60 -124 -6 -124 48
0 236 153 236 191 0 13 -25 34 -33 28 -1 -1 -23 -5 -49 -9z"/>
<path d="M2995 1824 c-10 -16 -42 -65 -71 -109 -57 -84 -66 -123 -39 -159 29
-38 100 10 138 94 26 57 28 163 5 186 -15 15 -18 14 -33 -12z"/>
<path d="M2408 1613 c11 -59 153 -162 208 -151 13 2 -4 19 -61 59 -44 31 -93
71 -109 88 -36 38 -45 39 -38 4z"/>
<path d="M913 1515 c0 -22 2 -30 4 -17 2 12 2 30 0 40 -3 9 -5 -1 -4 -23z"/>
<path d="M1882 5053 c357 -2 939 -2 1295 0 357 1 65 2 -647 2 -712 0 -1004 -1
-648 -2z"/>
<path d="M4017 5053 c94 -2 252 -2 350 0 98 1 21 2 -172 2 -192 1 -273 -1
-178 -2z"/>
<path d="M4614 4799 c-18 -9 -21 -20 -21 -71 -1 -60 13 -69 19 -13 2 24 8 31
31 33 19 2 27 -1 27 -13 0 -14 3 -14 29 -1 28 15 41 34 41 62 0 17 -92 19
-126 3z"/>
<path d="M4536 4689 c-9 -45 -7 -92 4 -109 10 -17 12 -16 34 28 9 18 12 32 6
32 -5 0 -10 18 -10 40 0 49 -24 55 -34 9z"/>
<path d="M4631 4704 c0 -11 3 -14 6 -6 3 7 2 16 -1 19 -3 4 -6 -2 -5 -13z"/>
<path d="M4949 4264 c-12 -14 -11 -16 5 -13 11 2 21 10 24 17 5 17 -13 15 -29
-4z"/>
<path d="M5028 4213 c7 -3 16 -2 19 1 4 3 -2 6 -13 5 -11 0 -14 -3 -6 -6z"/>
<path d="M50 460 c0 -13 -7 -20 -20 -20 -17 0 -20 -7 -20 -52 l1 -53 17 28 c9
15 20 27 24 27 5 0 8 -40 8 -90 0 -53 -4 -90 -10 -90 -5 0 -10 14 -10 30 0 20
-5 30 -15 30 -11 0 -15 -12 -15 -52 0 -34 3 -48 9 -39 6 8 14 10 22 5 8 -5 24
-7 37 -5 17 2 22 -3 22 -18 0 -12 5 -21 10 -21 6 0 10 9 10 20 0 13 7 20 20
20 13 0 20 -7 20 -20 0 -11 7 -20 15 -20 8 0 15 9 15 20 0 11 7 20 15 20 8 0
15 -9 15 -20 0 -11 7 -20 15 -20 8 0 15 9 15 20 0 13 7 20 20 20 13 0 20 -7
20 -20 0 -11 5 -20 10 -20 6 0 10 16 10 35 0 31 -3 35 -25 35 -24 0 -25 2 -25
70 l0 70 40 -2 c26 -1 40 -6 40 -15 0 -7 5 -13 10 -13 6 0 10 7 10 15 0 23 18
18 23 -7 l4 -23 2 23 c1 16 7 22 26 22 24 0 25 -2 25 -71 l0 -70 -27 3 c-25 3
-29 8 -33 48 l-5 45 -8 -34 c-10 -49 -9 -61 8 -61 8 0 15 -7 15 -15 0 -8 5
-15 10 -15 6 0 10 -9 10 -20 0 -32 27 -23 34 11 3 17 6 65 6 106 l0 74 63 -2
c91 -2 97 -1 97 21 0 11 5 20 10 20 6 0 10 -37 10 -90 l0 -90 -60 3 c-46 2
-60 -1 -60 -11 0 -8 -9 -16 -20 -19 -23 -6 -27 -43 -5 -43 8 0 15 9 15 20 0
13 7 20 20 20 13 0 20 -7 20 -20 0 -11 7 -20 15 -20 8 0 15 9 15 20 0 11 7 20
15 20 8 0 15 -9 15 -20 0 -11 7 -20 15 -20 8 0 15 9 15 20 0 11 7 20 15 20 8
0 15 -9 15 -20 0 -20 7 -20 335 -20 l335 0 0 -65 0 -65 65 0 65 0 0 86 0 85
28 -3 c20 -2 28 -9 30 -27 5 -30 -15 -52 -28 -31 -7 11 -10 4 -9 -25 0 -22 3
-34 6 -27 2 6 12 12 20 12 12 0 14 -8 10 -35 -4 -26 -2 -35 9 -35 9 0 14 11
14 30 0 17 5 30 10 30 6 0 10 -13 10 -30 0 -29 2 -30 45 -30 l45 0 2 38 c1 20
0 58 -1 85 -3 45 -2 47 23 47 26 0 26 0 26 -85 0 -47 3 -85 8 -85 4 0 6 39 4
86 l-4 85 29 -3 28 -3 0 -83 c0 -45 3 -82 8 -82 4 0 7 14 7 31 0 53 29 126 53
133 54 14 56 12 60 -81 l3 -88 2 88 2 88 28 -3 27 -3 0 -83 0 -82 33 0 32 0 0
85 c0 50 4 85 10 85 6 0 10 -11 10 -24 0 -14 4 -28 10 -31 6 -4 10 7 10 24 0
17 5 31 10 31 6 0 10 -35 10 -85 l0 -85 65 0 c62 0 65 1 65 24 0 14 9 41 21
60 12 20 16 36 10 36 -6 0 -11 -7 -11 -15 0 -8 -5 -15 -11 -15 -6 0 -9 16 -7
37 3 33 7 38 31 41 l27 3 -1 -81 c-1 -45 2 -84 5 -87 3 -4 6 33 6 81 l0 87 28
-3 27 -3 0 -83 c0 -93 9 -109 18 -30 9 87 42 141 49 81 l3 -28 18 33 c10 17
22 32 27 32 5 0 11 -39 13 -87 l3 -88 2 88 c2 86 2 87 27 87 25 0 25 -1 25
-85 l0 -85 45 0 45 0 0 60 c0 33 -4 60 -10 60 -5 0 -10 11 -10 25 0 21 5 25
30 25 25 0 30 -4 30 -25 0 -14 -4 -25 -10 -25 -6 0 -10 -27 -10 -60 0 -47 3
-60 15 -60 12 0 15 14 15 65 0 62 1 65 25 65 23 0 24 -3 28 -67 l3 -68 2 67 2
67 90 -1 90 0 0 -64 c0 -50 3 -64 15 -64 11 0 15 11 15 40 0 22 -4 40 -10 40
-5 0 -10 11 -10 25 0 14 5 25 10 25 6 0 10 9 10 20 0 11 4 20 9 20 12 0 23
-64 15 -94 -4 -16 -2 -26 5 -26 6 0 11 -11 11 -25 0 -24 2 -25 65 -25 l65 0 0
65 0 65 40 -2 c39 -1 40 -2 40 -40 0 -21 5 -38 10 -38 6 0 10 18 10 40 l0 40
40 0 c35 0 40 -3 40 -23 0 -12 -9 -28 -20 -35 -13 -8 -20 -23 -20 -42 0 -25 4
-30 25 -30 24 0 25 2 25 65 0 63 1 65 25 65 24 0 25 -2 25 -65 0 -36 3 -65 8
-65 4 0 7 28 7 62 l0 63 58 3 c53 2 57 1 57 -21 0 -12 -9 -28 -20 -35 -13 -8
-20 -23 -20 -42 0 -30 0 -30 59 -30 l59 0 6 43 c4 24 4 63 0 85 -5 35 -4 42
10 42 13 0 16 -13 16 -85 0 -61 3 -85 13 -85 8 0 12 19 12 62 l0 63 58 2 57 2
0 -30 c0 -24 -4 -30 -15 -25 -9 3 -15 0 -15 -9 0 -8 6 -12 14 -9 11 4 16 -4
19 -28 2 -18 5 -2 5 35 2 68 2 68 30 65 26 -3 27 -6 30 -65 2 -44 7 -63 16
-63 10 0 11 12 5 52 -9 54 -3 118 11 118 12 0 22 -65 14 -94 -4 -16 -2 -26 5
-26 6 0 11 -11 11 -25 0 -14 5 -25 10 -25 6 0 10 35 10 85 0 50 4 85 10 85 6
0 10 -21 10 -47 0 -64 11 -123 21 -123 5 0 9 29 9 65 l0 65 58 -3 57 -2 3 -62
3 -63 284 0 285 0 0 66 0 66 30 -4 c24 -4 30 -1 32 16 2 15 12 22 31 24 l27 3
-1 -81 c-1 -45 2 -84 5 -87 3 -4 6 9 6 28 0 19 5 40 12 47 9 9 9 12 0 12 -7 0
-12 16 -12 41 0 38 1 40 28 37 24 -3 27 -7 30 -46 2 -24 -2 -50 -9 -58 -8 -10
-8 -14 0 -14 6 0 11 -11 11 -25 0 -22 4 -25 40 -25 l40 0 0 85 c0 50 4 85 10
85 6 0 10 -21 10 -47 0 -64 11 -123 21 -123 5 0 9 15 9 33 0 18 5 38 12 45 9
9 9 12 0 12 -7 0 -12 16 -12 40 l0 40 60 -3 c52 -2 60 0 60 15 0 15 -9 18 -60
18 l-60 0 0 38 c0 20 7 46 15 56 8 11 14 29 14 40 -1 17 -2 18 -6 3 -7 -28
-23 -19 -23 13 l0 30 60 -3 60 -3 -1 46 c-1 25 -3 37 -6 28 -7 -27 -51 -23
-56 5 l-4 22 -8 -23 c-9 -28 -45 -30 -45 -2 0 11 -4 20 -10 20 -5 0 -10 -9
-10 -20 0 -28 -38 -26 -50 2 l-9 23 0 -22 c-1 -18 -7 -23 -26 -23 -19 0 -25 5
-26 23 l0 22 -9 -23 c-12 -28 -50 -30 -50 -2 0 11 -4 20 -10 20 -5 0 -10 -9
-10 -20 0 -28 -36 -26 -45 3 l-8 22 -4 -22 c-3 -16 -11 -23 -29 -23 -18 0 -24
6 -25 23 l0 22 -9 -22 c-12 -29 -50 -31 -50 -3 0 11 -4 20 -10 20 -5 0 -10 -9
-10 -20 0 -28 -36 -26 -45 3 l-8 22 -4 -22 c-6 -33 -53 -33 -54 0 l0 22 -9
-22 c-12 -30 -47 -30 -53 0 l-4 22 -8 -23 c-9 -29 -41 -29 -50 1 l-8 22 -4
-22 c-6 -30 -41 -30 -53 0 l-9 22 0 -22 c-1 -17 -7 -23 -25 -23 -18 0 -26 7
-29 23 l-4 22 -8 -22 c-9 -29 -45 -31 -45 -3 0 11 -4 20 -10 20 -5 0 -10 -9
-10 -20 0 -28 -38 -26 -50 3 l-9 22 0 -22 c-1 -17 -7 -23 -25 -23 -18 0 -26 7
-29 23 l-4 22 -8 -22 c-9 -29 -45 -31 -45 -3 0 11 -4 20 -10 20 -5 0 -10 -9
-10 -20 0 -28 -38 -26 -50 2 l-9 23 0 -22 c-1 -18 -7 -23 -26 -23 -19 0 -25 5
-26 23 l0 22 -9 -22 c-12 -29 -50 -31 -50 -3 0 11 -4 20 -10 20 -5 0 -10 -9
-10 -20 0 -28 -36 -26 -45 3 l-8 22 -4 -22 c-3 -16 -11 -23 -29 -23 -18 0 -24
6 -25 23 l0 22 -9 -22 c-12 -29 -50 -31 -50 -3 0 11 -4 20 -10 20 -5 0 -10 -9
-10 -20 0 -28 -36 -26 -45 3 l-8 22 -4 -22 c-6 -30 -41 -30 -53 0 l-9 22 0
-22 c-1 -17 -7 -23 -25 -23 -18 0 -26 7 -29 23 l-4 22 -8 -22 c-9 -29 -45 -31
-45 -3 0 11 -4 20 -10 20 -5 0 -10 -9 -10 -20 0 -28 -38 -26 -50 3 l-9 22 0
-22 c-1 -17 -7 -23 -25 -23 -18 0 -26 7 -29 23 l-4 22 -8 -22 c-9 -29 -45 -31
-45 -3 0 11 -4 20 -10 20 -5 0 -10 -9 -10 -20 0 -28 -38 -26 -50 3 l-9 22 0
-22 c-1 -18 -7 -23 -26 -23 -19 0 -25 5 -26 23 l0 22 -9 -22 c-12 -29 -50 -31
-50 -3 0 11 -4 20 -10 20 -5 0 -10 -9 -10 -20 0 -28 -36 -26 -45 3 l-8 22 -4
-22 c-3 -16 -11 -23 -29 -23 -18 0 -24 6 -25 23 l0 22 -9 -22 c-12 -29 -50
-31 -50 -3 0 11 -4 20 -10 20 -5 0 -10 -9 -10 -20 0 -28 -36 -26 -45 3 l-8 22
-4 -22 c-6 -30 -41 -30 -52 -1 l-8 22 -5 -22 c-8 -30 -45 -29 -51 1 l-4 22 -8
-22 c-9 -29 -45 -31 -45 -3 0 11 -4 20 -10 20 -5 0 -10 -9 -10 -20 0 -28 -38
-26 -50 3 l-9 22 0 -22 c-1 -17 -7 -23 -25 -23 -18 0 -26 7 -29 23 l-4 22 -8
-22 c-9 -29 -45 -31 -45 -3 0 11 -4 20 -10 20 -5 0 -10 -9 -10 -20 0 -28 -38
-26 -50 3 l-9 22 0 -22 c-1 -18 -7 -23 -26 -23 -19 0 -25 5 -26 23 l0 22 -9
-23 c-12 -28 -50 -30 -50 -2 0 11 -4 20 -10 20 -5 0 -10 -9 -10 -20 0 -28 -36
-26 -45 3 l-8 22 -4 -22 c-3 -16 -11 -23 -29 -23 -18 0 -24 6 -25 23 l0 22 -9
-22 c-12 -29 -50 -31 -50 -3 0 11 -4 20 -10 20 -5 0 -10 -9 -10 -20 0 -28 -36
-26 -45 3 l-8 22 -4 -22 c-3 -16 -11 -23 -29 -23 -18 0 -24 6 -25 23 l0 22 -9
-22 c-5 -13 -18 -23 -29 -23 -12 0 -21 8 -24 23 l-4 22 -8 -22 c-4 -13 -15
-23 -25 -23 -10 0 -21 10 -25 23 l-8 22 -4 -22 c-3 -15 -12 -23 -24 -23 -11 0
-24 10 -29 23 l-9 22 0 -22 c-1 -17 -7 -23 -25 -23 -18 0 -26 7 -29 23 l-4 22
-8 -22 c-9 -29 -45 -31 -45 -3 0 11 -4 20 -10 20 -5 0 -10 -9 -10 -20 0 -28
-38 -26 -50 3 l-9 22 0 -22 c-1 -17 -7 -23 -25 -23 -18 0 -26 7 -29 23 l-4 22
-8 -22 c-9 -29 -45 -31 -45 -3 0 11 -4 20 -10 20 -5 0 -10 -9 -10 -20 0 -28
-36 -26 -45 3 l-8 22 -4 -22 c-3 -16 -11 -23 -29 -23 -18 0 -24 6 -25 23 l0
22 -9 -22 c-12 -29 -50 -31 -50 -3 0 11 -4 20 -10 20 -5 0 -10 -9 -10 -20 0
-28 -36 -26 -45 3 l-8 22 -4 -22 c-3 -16 -11 -23 -29 -23 -18 0 -24 6 -25 23
l0 22 -9 -22 c-12 -30 -47 -30 -53 0 l-4 22 -8 -22 c-4 -13 -15 -23 -25 -23
-10 0 -21 10 -25 23 l-8 22 -4 -22 c-3 -15 -12 -23 -24 -23 -11 0 -24 10 -29
23 l-9 22 0 -22 c-1 -17 -7 -23 -25 -23 -18 0 -26 7 -29 23 l-4 22 -8 -22 c-9
-29 -45 -31 -45 -3 0 11 -4 20 -10 20 -5 0 -10 -9 -10 -20 0 -28 -38 -26 -50
3 l-9 22 0 -22 c-1 -17 -7 -23 -25 -23 -18 0 -26 7 -29 23 l-4 22 -8 -22 c-9
-29 -45 -31 -45 -3 0 11 -4 20 -10 20 -5 0 -10 -9 -10 -20 0 -28 -38 -26 -50
3 l-9 22 0 -22 c-1 -18 -7 -23 -26 -23 -19 0 -25 5 -26 23 l0 22 -9 -22 c-12
-29 -50 -31 -50 -3 0 11 -4 20 -10 20 -5 0 -10 -9 -10 -20 0 -28 -36 -26 -45
3 l-8 22 -4 -22 c-3 -16 -11 -23 -29 -23 -18 0 -24 6 -25 23 l0 22 -9 -22
c-12 -29 -50 -31 -50 -3 0 11 -4 20 -10 20 -5 0 -10 -9 -10 -20z m200 -115 c0
-28 -4 -45 -12 -45 -9 0 -9 -3 0 -12 14 -14 16 -78 2 -78 -5 0 -11 12 -11 28
l-2 27 -4 -27 c-2 -16 -11 -28 -19 -28 -11 0 -14 19 -14 90 l0 90 30 0 c29 0
30 -2 30 -45z m990 25 c0 -11 5 -20 10 -20 6 0 10 -7 10 -15 0 -8 -4 -15 -10
-15 -5 0 -10 -13 -10 -30 0 -16 5 -30 10 -30 6 0 10 -12 10 -26 0 -19 -5 -25
-17 -22 -14 2 -19 17 -24 63 -7 66 -1 115 12 115 5 0 9 -9 9 -20z m696 -70 c0
-68 -3 -90 -13 -90 -10 0 -13 22 -13 90 0 65 3 90 13 90 9 0 12 -25 13 -90z
m144 49 c0 -22 -7 -51 -16 -64 -15 -23 -15 -25 0 -25 10 0 16 -9 16 -25 0 -24
-3 -25 -60 -25 l-60 0 0 33 c0 17 9 46 20 62 22 33 26 55 10 55 -5 0 -10 -7
-10 -15 0 -8 -4 -15 -10 -15 -10 0 -14 43 -5 52 3 3 30 6 60 6 l55 0 0 -39z
m430 -49 c0 -68 -3 -90 -13 -90 -10 0 -13 22 -13 90 1 65 4 90 14 90 9 0 12
-25 12 -90z m138 63 c2 -13 -1 -23 -7 -23 -6 0 -11 5 -11 10 0 6 -4 10 -10 10
-5 0 -10 -22 -10 -50 0 -27 5 -50 10 -50 6 0 10 7 10 15 0 8 5 15 11 15 6 0 9
-16 7 -37 -3 -33 -6 -38 -28 -38 -24 0 -25 3 -28 74 -2 41 0 80 2 88 9 23 51
11 54 -14z m473 -5 c0 -18 3 -27 6 -20 6 16 33 16 33 -1 0 -7 -5 -18 -12 -25
-9 -9 -9 -18 0 -37 16 -36 15 -65 -3 -65 -9 0 -16 10 -16 28 l-2 27 -4 -27
c-9 -61 -23 -23 -23 62 0 53 4 90 10 90 6 0 10 -15 11 -32z m79 -20 c0 -29 3
-70 6 -90 6 -33 4 -38 -14 -38 -20 0 -21 4 -13 163 1 9 6 17 11 17 6 0 10 -24
10 -52z m60 32 c0 -11 5 -20 10 -20 6 0 10 -7 10 -15 0 -8 -4 -15 -10 -15 -5
0 -10 -13 -10 -30 0 -16 5 -30 10 -30 6 0 10 -12 10 -26 0 -19 -5 -25 -17 -22
-14 2 -19 17 -24 63 -7 66 -1 115 12 115 5 0 9 -9 9 -20z m110 0 c0 -20 4 -22
65 -24 l30 -1 0 -65 0 -65 -37 -2 -38 -1 0 54 c0 30 -4 54 -10 54 -5 0 -10
-25 -10 -55 0 -30 -4 -55 -10 -55 -6 0 -10 37 -10 90 0 53 4 90 10 90 6 0 10
-9 10 -20z m250 -17 c1 -31 3 -35 11 -20 7 11 22 17 49 17 l40 0 0 -70 c0 -84
-19 -95 -22 -12 l-2 57 -3 -58 c-4 -57 -5 -58 -31 -55 -21 2 -28 10 -33 33
l-7 30 -1 -32 c0 -18 -5 -33 -11 -33 -6 0 -10 37 -10 90 0 53 4 90 10 90 6 0
10 -17 10 -37z m150 -53 c0 -70 -3 -90 -14 -90 -13 0 -14 19 -7 163 1 9 6 17
11 17 6 0 10 -37 10 -90z m80 75 c0 -8 -4 -15 -8 -15 -5 0 -9 -8 -9 -17 1 -76
-4 -133 -12 -133 -12 0 -20 129 -10 158 9 25 39 30 39 7z m180 4 c0 -6 -5 -20
-11 -31 -9 -16 -8 -35 1 -75 13 -53 9 -76 -10 -57 -16 16 -24 128 -11 152 12
23 31 30 31 11z m70 -79 c0 -53 -4 -90 -10 -90 -5 0 -10 14 -10 30 0 23 -4 30
-20 30 -15 0 -20 7 -20 24 0 27 37 96 51 96 5 0 9 -40 9 -90z m60 0 c0 -89 0
-90 -25 -90 -24 0 -25 2 -25 70 0 56 3 70 15 70 8 0 15 9 15 20 0 11 5 20 10
20 6 0 10 -37 10 -90z m50 38 c0 -29 3 -70 6 -90 6 -33 4 -38 -13 -38 -18 0
-19 7 -17 88 2 100 1 92 14 92 6 0 10 -24 10 -52z m65 21 c8 -36 -3 -149 -15
-149 -5 0 -8 40 -7 90 1 91 10 115 22 59z m455 -9 c0 -23 -7 -52 -16 -65 -15
-23 -15 -25 0 -25 11 0 16 -9 16 -26 0 -23 -4 -25 -32 -24 -56 3 -68 1 -68
-15 0 -8 -4 -15 -10 -15 -6 0 -10 35 -10 86 l0 86 30 -4 c23 -4 30 -1 30 12 0
23 9 30 37 30 20 0 23 -5 23 -40z m68 2 c2 -21 -4 -43 -18 -62 l-21 -30 20 0
c16 0 21 -6 21 -25 0 -21 -5 -25 -30 -25 -28 0 -30 3 -30 35 0 19 9 49 20 67
22 37 25 48 10 48 -5 0 -10 -7 -10 -15 0 -8 -4 -15 -10 -15 -5 0 -10 14 -10
31 0 27 3 30 28 27 22 -2 28 -8 30 -36z m102 -14 c0 -29 3 -70 6 -90 5 -31 4
-38 -10 -38 -14 0 -16 13 -16 90 0 53 4 90 10 90 6 0 10 -24 10 -52z m-2780
30 c0 -9 3 -8 10 2 16 26 24 0 11 -37 -10 -27 -11 -38 -2 -41 18 -6 14 -82 -4
-82 -9 0 -16 10 -16 28 l-2 27 -4 -27 c-2 -16 -9 -28 -14 -28 -13 0 -11 54 3
86 10 22 10 28 0 32 -18 6 -15 52 3 52 8 0 15 -6 15 -12z m-1302 -86 c3 -57 1
-64 -18 -69 -11 -3 -20 -12 -20 -19 0 -8 -4 -14 -10 -14 -5 0 -10 8 -10 18 0
13 -8 18 -27 17 -27 0 -28 2 -30 55 -3 78 -2 79 59 77 l53 -2 3 -63z m62 -2
c0 -68 -1 -70 -25 -70 -24 0 -25 2 -25 70 0 68 1 70 25 70 24 0 25 -2 25 -70z
m190 -1 c0 -55 -3 -69 -15 -69 -8 0 -15 -7 -15 -15 0 -8 -7 -15 -15 -15 -8 0
-15 8 -15 18 0 15 -8 17 -60 15 l-60 -3 0 69 0 68 90 1 90 0 0 -69z m130 55
c0 -7 -6 -14 -14 -14 -18 0 -26 -22 -26 -69 0 -37 -1 -38 -40 -39 l-40 -2 0
69 0 69 60 1 c46 0 60 -3 60 -15z m1070 -55 l0 -70 -27 3 c-26 3 -28 6 -30 58
-3 70 1 80 32 80 24 0 25 -2 25 -71z m190 0 c0 -39 -4 -69 -10 -69 -5 0 -10
25 -10 55 0 30 -4 55 -10 55 -5 0 -10 -24 -10 -53 l0 -54 -70 0 -70 -1 0 67 0
68 90 1 90 0 0 -69z m222 24 l2 -48 3 48 c6 73 23 56 23 -23 0 -68 -1 -70 -25
-70 -24 0 -25 2 -25 70 0 78 19 98 22 23z m218 -24 l0 -68 -57 2 -58 2 -2 35
c-1 19 -2 43 -2 53 -1 21 -27 23 -35 1 -3 -9 -6 -33 -6 -55 0 -21 -4 -39 -10
-39 -6 0 -10 30 -10 69 l0 69 90 0 90 -1 0 -68z m70 57 c0 -7 -9 -16 -20 -19
-17 -4 -20 -14 -20 -56 0 -28 -4 -51 -10 -51 -6 0 -10 30 -10 70 l0 70 30 0
c19 0 30 -5 30 -14z m40 -6 c0 -11 -4 -20 -10 -20 -5 0 -10 9 -10 20 0 11 5
20 10 20 6 0 10 -9 10 -20z m330 -1 c0 -15 -5 -19 -15 -15 -12 4 -15 -2 -14
-27 0 -18 3 -26 6 -19 10 24 23 11 23 -23 0 -31 -3 -35 -25 -35 -24 0 -25 2
-25 70 0 68 1 70 25 70 19 0 25 -5 25 -21z m190 -49 c0 -84 -19 -95 -22 -12
l-2 57 -3 -57 c-5 -82 -23 -72 -23 12 0 68 1 70 25 70 24 0 25 -2 25 -70z
m380 -1 l0 -70 -27 3 c-26 3 -28 6 -31 57 -4 68 1 81 33 81 24 0 25 -2 25 -71z
m-900 -24 c0 -19 -4 -35 -10 -35 -5 0 -10 16 -10 35 0 19 5 35 10 35 6 0 10
-16 10 -35z m1330 -10 c0 -24 -5 -35 -15 -35 -10 0 -15 11 -15 35 0 24 5 35
15 35 10 0 15 -11 15 -35z m60 0 c0 -19 -4 -35 -10 -35 -5 0 -10 16 -10 35 0
19 5 35 10 35 6 0 10 -16 10 -35z m60 0 c0 -19 -4 -35 -10 -35 -5 0 -10 16
-10 35 0 19 5 35 10 35 6 0 10 -16 10 -35z m-2330 -165 c0 -33 -4 -60 -10 -60
-6 0 -10 27 -10 60 0 33 4 60 10 60 6 0 10 -27 10 -60z m880 0 c0 -33 -4 -60
-10 -60 -6 0 -10 27 -10 60 0 33 4 60 10 60 6 0 10 -27 10 -60z"/>
<path d="M221 344 c0 -11 3 -14 6 -6 3 7 2 16 -1 19 -3 4 -6 -2 -5 -13z"/>
<path d="M2040 345 c0 -8 -4 -15 -8 -15 -8 0 -16 -14 -40 -62 -2 -5 2 -8 10
-8 15 0 58 63 58 85 0 8 -4 15 -10 15 -5 0 -10 -7 -10 -15z"/>
<path d="M3430 270 c0 -5 5 -10 10 -10 6 0 10 5 10 10 0 6 -4 10 -10 10 -5 0
-10 -4 -10 -10z"/>
<path d="M3647 308 c-2 -7 -1 -22 4 -33 6 -16 8 -14 8 13 1 33 -4 41 -12 20z"/>
<path d="M4065 310 c-3 -5 -1 -10 4 -10 6 0 11 5 11 10 0 6 -2 10 -4 10 -3 0
-8 -4 -11 -10z"/>
<path d="M4132 290 c0 -19 2 -27 5 -17 2 9 2 25 0 35 -3 9 -5 1 -5 -18z"/>
<path d="M4690 345 c0 -8 -4 -15 -10 -15 -5 0 -10 -12 -10 -27 l0 -28 20 25
c21 27 26 60 10 60 -5 0 -10 -7 -10 -15z"/>
<path d="M4630 290 c0 -16 5 -30 10 -30 6 0 10 14 10 30 0 17 -4 30 -10 30 -5
0 -10 -13 -10 -30z"/>
<path d="M780 290 c0 -16 5 -30 10 -30 6 0 10 14 10 30 0 17 -4 30 -10 30 -5
0 -10 -13 -10 -30z"/>
<path d="M720 270 c0 -5 5 -10 10 -10 6 0 10 5 10 10 0 6 -4 10 -10 10 -5 0
-10 -4 -10 -10z"/>
<path d="M851 274 c0 -11 3 -14 6 -6 3 7 2 16 -1 19 -3 4 -6 -2 -5 -13z"/>
<path d="M910 290 c0 -34 5 -37 26 -16 18 19 18 32 -2 40 -23 9 -24 8 -24 -24z"/>
<path d="M1042 290 c0 -19 2 -27 5 -17 2 9 2 25 0 35 -3 9 -5 1 -5 -18z"/>
<path d="M970 270 c0 -5 5 -10 10 -10 6 0 10 5 10 10 0 6 -4 10 -10 10 -5 0
-10 -4 -10 -10z"/>
<path d="M1100 290 c0 -16 5 -30 10 -30 6 0 10 14 10 30 0 17 -4 30 -10 30 -5
0 -10 -13 -10 -30z"/>
<path d="M2230 270 c0 -5 5 -10 10 -10 6 0 10 5 10 10 0 6 -4 10 -10 10 -5 0
-10 -4 -10 -10z"/>
<path d="M2360 270 c0 -5 5 -10 10 -10 6 0 10 5 10 10 0 6 -4 10 -10 10 -5 0
-10 -4 -10 -10z"/>
<path d="M2872 290 c0 -19 2 -27 5 -17 2 9 2 25 0 35 -3 9 -5 1 -5 -18z"/>
<path d="M2800 270 c0 -5 5 -10 10 -10 6 0 10 5 10 10 0 6 -4 10 -10 10 -5 0
-10 -4 -10 -10z"/>
<path d="M3870 270 c0 -5 5 -10 10 -10 6 0 10 5 10 10 0 6 -4 10 -10 10 -5 0
-10 -4 -10 -10z"/>
<path d="M5010 346 c0 -8 -4 -16 -8 -18 -4 -1 -18 -18 -31 -35 -20 -30 -21
-33 -4 -33 11 0 27 16 41 43 25 47 27 57 12 57 -5 0 -10 -6 -10 -14z"/>
<path d="M472 290 c0 -19 2 -27 5 -17 2 9 2 25 0 35 -3 9 -5 1 -5 -18z"/>
<path d="M590 290 c0 -16 5 -30 10 -30 6 0 10 14 10 30 0 17 -4 30 -10 30 -5
0 -10 -13 -10 -30z"/>
<path d="M5032 290 c-16 -26 -15 -30 3 -30 9 0 15 9 15 25 0 30 -2 31 -18 5z"/>
<path d="M321 258 c-1 -27 4 -48 9 -48 12 0 12 34 0 70 -7 20 -8 16 -9 -22z"/>
<path d="M280 275 c0 -8 5 -15 10 -15 6 0 10 7 10 15 0 8 -4 15 -10 15 -5 0
-10 -7 -10 -15z"/>
<path d="M400 275 c0 -8 5 -15 10 -15 6 0 10 7 10 15 0 8 -4 15 -10 15 -5 0
-10 -7 -10 -15z"/>
<path d="M530 270 c0 -5 5 -10 10 -10 6 0 10 5 10 10 0 6 -4 10 -10 10 -5 0
-10 -4 -10 -10z"/>
<path d="M4690 120 c0 -5 5 -10 10 -10 6 0 10 5 10 10 0 6 -4 10 -10 10 -5 0
-10 -4 -10 -10z"/>
<path d="M5010 119 c0 -5 5 -7 10 -4 6 3 10 8 10 11 0 2 -4 4 -10 4 -5 0 -10
-5 -10 -11z"/>
<path d="M1827 113 c-2 -5 -7 -21 -11 -38 -4 -16 -9 -38 -12 -47 -4 -13 0 -18
15 -18 17 0 19 5 14 35 -4 23 -2 35 6 35 6 0 11 6 11 14 0 17 -16 30 -23 19z"/>
<path d="M2383 71 c-18 -58 -17 -61 22 -61 24 0 35 5 35 15 0 8 -9 15 -19 15
-15 0 -20 8 -23 36 l-3 36 -12 -41z"/>
<path d="M4670 84 c0 -8 5 -12 10 -9 6 3 10 10 10 16 0 5 -4 9 -10 9 -5 0 -10
-7 -10 -16z"/>
<path d="M4982 80 c-7 -11 -8 -20 -2 -20 5 0 14 9 20 20 6 11 7 20 3 20 -5 0
-14 -9 -21 -20z"/>
<path d="M2746 74 c-3 -9 -6 -27 -6 -40 0 -18 5 -24 23 -24 20 0 22 4 19 40
-4 41 -24 54 -36 24z"/>
<path d="M2800 75 c0 -8 5 -15 10 -15 6 0 10 7 10 15 0 8 -4 15 -10 15 -5 0
-10 -7 -10 -15z"/>
<path d="M3120 75 c0 -8 8 -11 20 -8 11 3 20 7 20 8 0 1 -9 5 -20 8 -12 3 -20
0 -20 -8z"/>
<path d="M3370 75 c0 -8 5 -15 10 -15 6 0 10 7 10 15 0 8 -4 15 -10 15 -5 0
-10 -7 -10 -15z"/>
<path d="M3620 75 c0 -8 5 -15 10 -15 6 0 10 7 10 15 0 8 -4 15 -10 15 -5 0
-10 -7 -10 -15z"/>
<path d="M3941 74 c0 -11 3 -14 6 -6 3 7 2 16 -1 19 -3 4 -6 -2 -5 -13z"/>
<path d="M4000 50 c0 -22 5 -40 10 -40 6 0 10 18 10 40 0 22 -4 40 -10 40 -5
0 -10 -18 -10 -40z"/>
<path d="M4630 75 c0 -8 5 -15 10 -15 6 0 10 7 10 15 0 8 -4 15 -10 15 -5 0
-10 -7 -10 -15z"/>
<path d="M413 45 c0 -22 2 -30 4 -17 2 12 2 30 0 40 -3 9 -5 -1 -4 -23z"/>
<path d="M473 45 c0 -22 2 -30 4 -17 2 12 2 30 0 40 -3 9 -5 -1 -4 -23z"/>
<path d="M603 45 c0 -22 2 -30 4 -17 2 12 2 30 0 40 -3 9 -5 -1 -4 -23z"/>
<path d="M663 45 c0 -22 2 -30 4 -17 2 12 2 30 0 40 -3 9 -5 -1 -4 -23z"/>
<path d="M2040 46 c0 -14 5 -28 10 -31 6 -4 10 7 10 24 0 17 -4 31 -10 31 -5
0 -10 -11 -10 -24z"/>
</g>
</svg>
